<?xml version="1.0" encoding="utf-8"?>
<svg xmlns="http://www.w3.org/2000/svg" xmlns:xlink="http://www.w3.org/1999/xlink" width="720" height="440" viewBox="0 0 2880 1760">
<defs>
  <clipPath id="clip100">
    <rect x="0" y="0" width="2880" height="1760"/>
  </clipPath>
</defs>
<path clip-path="url(#clip100)" d="M0 1760 L2880 1760 L2880 2.27374e-13 L0 2.27374e-13  Z" fill="#ffffff" fill-rule="evenodd" fill-opacity="1"/>
<defs>
  <clipPath id="clip101">
    <rect x="236" y="155" width="2597" height="1436"/>
  </clipPath>
</defs>
<path clip-path="url(#clip100)" d="M206.179 1590.66 L2832.76 1590.66 L2832.76 155.208 L206.179 155.208  Z" fill="#ffffff" fill-rule="evenodd" fill-opacity="1"/>
<defs>
  <clipPath id="clip102">
    <rect x="206" y="155" width="2628" height="1436"/>
  </clipPath>
</defs>
<polyline clip-path="url(#clip102)" style="stroke:#000000; stroke-linecap:round; stroke-linejoin:round; stroke-width:2; stroke-opacity:0.25; fill:none" points="602.744,1590.66 602.744,155.208 "/>
<polyline clip-path="url(#clip102)" style="stroke:#000000; stroke-linecap:round; stroke-linejoin:round; stroke-width:2; stroke-opacity:0.25; fill:none" points="1519.47,1590.66 1519.47,155.208 "/>
<polyline clip-path="url(#clip102)" style="stroke:#000000; stroke-linecap:round; stroke-linejoin:round; stroke-width:2; stroke-opacity:0.25; fill:none" points="2436.19,1590.66 2436.19,155.208 "/>
<polyline clip-path="url(#clip102)" style="stroke:#000000; stroke-linecap:round; stroke-linejoin:round; stroke-width:2; stroke-opacity:0.25; fill:none" points="602.744,1590.66 602.744,155.208 "/>
<polyline clip-path="url(#clip102)" style="stroke:#000000; stroke-linecap:round; stroke-linejoin:round; stroke-width:2; stroke-opacity:0.25; fill:none" points="1519.47,1590.66 1519.47,155.208 "/>
<polyline clip-path="url(#clip102)" style="stroke:#000000; stroke-linecap:round; stroke-linejoin:round; stroke-width:2; stroke-opacity:0.25; fill:none" points="2436.19,1590.66 2436.19,155.208 "/>
<polyline clip-path="url(#clip102)" style="stroke:#000000; stroke-linecap:round; stroke-linejoin:round; stroke-width:2; stroke-opacity:0.25; fill:none" points="206.179,1590.66 2832.76,1590.66 "/>
<polyline clip-path="url(#clip102)" style="stroke:#000000; stroke-linecap:round; stroke-linejoin:round; stroke-width:2; stroke-opacity:0.25; fill:none" points="206.179,1112.17 2832.76,1112.17 "/>
<polyline clip-path="url(#clip102)" style="stroke:#000000; stroke-linecap:round; stroke-linejoin:round; stroke-width:2; stroke-opacity:0.25; fill:none" points="206.179,633.691 2832.76,633.691 "/>
<polyline clip-path="url(#clip102)" style="stroke:#000000; stroke-linecap:round; stroke-linejoin:round; stroke-width:2; stroke-opacity:0.25; fill:none" points="206.179,155.208 2832.76,155.208 "/>
<polyline clip-path="url(#clip102)" style="stroke:#000000; stroke-linecap:round; stroke-linejoin:round; stroke-width:2; stroke-opacity:0.25; fill:none" points="206.179,1590.66 2832.76,1590.66 "/>
<polyline clip-path="url(#clip102)" style="stroke:#000000; stroke-linecap:round; stroke-linejoin:round; stroke-width:2; stroke-opacity:0.25; fill:none" points="206.179,1112.17 2832.76,1112.17 "/>
<polyline clip-path="url(#clip102)" style="stroke:#000000; stroke-linecap:round; stroke-linejoin:round; stroke-width:2; stroke-opacity:0.25; fill:none" points="206.179,633.691 2832.76,633.691 "/>
<polyline clip-path="url(#clip102)" style="stroke:#000000; stroke-linecap:round; stroke-linejoin:round; stroke-width:2; stroke-opacity:0.25; fill:none" points="206.179,155.208 2832.76,155.208 "/>
<polyline clip-path="url(#clip100)" style="stroke:#000000; stroke-linecap:round; stroke-linejoin:round; stroke-width:4; stroke-opacity:1; fill:none" points="206.179,1590.66 2832.76,1590.66 "/>
<polyline clip-path="url(#clip100)" style="stroke:#000000; stroke-linecap:round; stroke-linejoin:round; stroke-width:4; stroke-opacity:1; fill:none" points="206.179,155.208 2832.76,155.208 "/>
<polyline clip-path="url(#clip100)" style="stroke:#000000; stroke-linecap:round; stroke-linejoin:round; stroke-width:4; stroke-opacity:1; fill:none" points="602.744,1590.66 602.744,1571.76 "/>
<polyline clip-path="url(#clip100)" style="stroke:#000000; stroke-linecap:round; stroke-linejoin:round; stroke-width:4; stroke-opacity:1; fill:none" points="1519.47,1590.66 1519.47,1571.76 "/>
<polyline clip-path="url(#clip100)" style="stroke:#000000; stroke-linecap:round; stroke-linejoin:round; stroke-width:4; stroke-opacity:1; fill:none" points="2436.19,1590.66 2436.19,1571.76 "/>
<polyline clip-path="url(#clip100)" style="stroke:#000000; stroke-linecap:round; stroke-linejoin:round; stroke-width:4; stroke-opacity:1; fill:none" points="602.744,155.208 602.744,174.106 "/>
<polyline clip-path="url(#clip100)" style="stroke:#000000; stroke-linecap:round; stroke-linejoin:round; stroke-width:4; stroke-opacity:1; fill:none" points="1519.47,155.208 1519.47,174.106 "/>
<polyline clip-path="url(#clip100)" style="stroke:#000000; stroke-linecap:round; stroke-linejoin:round; stroke-width:4; stroke-opacity:1; fill:none" points="2436.19,155.208 2436.19,174.106 "/>
<g clip-path="url(#clip100)">
<text style="fill:#000000; fill-opacity:1; font-family:Arial,Helvetica Neue,Helvetica,sans-serif; font-size:53px; text-anchor:middle;" transform="rotate(0, 602.744, 1661.49)" x="602.744" y="1661.49">Tonstad</text>
</g>
<g clip-path="url(#clip100)">
<text style="fill:#000000; fill-opacity:1; font-family:Arial,Helvetica Neue,Helvetica,sans-serif; font-size:53px; text-anchor:middle;" transform="rotate(0, 1519.47, 1661.49)" x="1519.47" y="1661.49">Sima</text>
</g>
<g clip-path="url(#clip100)">
<text style="fill:#000000; fill-opacity:1; font-family:Arial,Helvetica Neue,Helvetica,sans-serif; font-size:53px; text-anchor:middle;" transform="rotate(0, 2436.19, 1661.49)" x="2436.19" y="1661.49">Aurland</text>
</g>
<g clip-path="url(#clip100)">
<text style="fill:#000000; fill-opacity:1; font-family:Arial,Helvetica Neue,Helvetica,sans-serif; font-size:59px; text-anchor:middle;" transform="rotate(0, 1519.47, 1744.72)" x="1519.47" y="1744.72">Generator</text>
</g>
<polyline clip-path="url(#clip100)" style="stroke:#000000; stroke-linecap:round; stroke-linejoin:round; stroke-width:4; stroke-opacity:1; fill:none" points="206.179,1590.66 206.179,155.208 "/>
<polyline clip-path="url(#clip100)" style="stroke:#000000; stroke-linecap:round; stroke-linejoin:round; stroke-width:4; stroke-opacity:1; fill:none" points="2832.76,1590.66 2832.76,155.208 "/>
<polyline clip-path="url(#clip100)" style="stroke:#000000; stroke-linecap:round; stroke-linejoin:round; stroke-width:4; stroke-opacity:1; fill:none" points="206.179,1590.66 225.076,1590.66 "/>
<polyline clip-path="url(#clip100)" style="stroke:#000000; stroke-linecap:round; stroke-linejoin:round; stroke-width:4; stroke-opacity:1; fill:none" points="206.179,1112.17 225.076,1112.17 "/>
<polyline clip-path="url(#clip100)" style="stroke:#000000; stroke-linecap:round; stroke-linejoin:round; stroke-width:4; stroke-opacity:1; fill:none" points="206.179,633.691 225.076,633.691 "/>
<polyline clip-path="url(#clip100)" style="stroke:#000000; stroke-linecap:round; stroke-linejoin:round; stroke-width:4; stroke-opacity:1; fill:none" points="206.179,155.208 225.076,155.208 "/>
<polyline clip-path="url(#clip100)" style="stroke:#000000; stroke-linecap:round; stroke-linejoin:round; stroke-width:4; stroke-opacity:1; fill:none" points="2832.76,1590.66 2813.86,1590.66 "/>
<polyline clip-path="url(#clip100)" style="stroke:#000000; stroke-linecap:round; stroke-linejoin:round; stroke-width:4; stroke-opacity:1; fill:none" points="2832.76,1112.17 2813.86,1112.17 "/>
<polyline clip-path="url(#clip100)" style="stroke:#000000; stroke-linecap:round; stroke-linejoin:round; stroke-width:4; stroke-opacity:1; fill:none" points="2832.76,633.691 2813.86,633.691 "/>
<polyline clip-path="url(#clip100)" style="stroke:#000000; stroke-linecap:round; stroke-linejoin:round; stroke-width:4; stroke-opacity:1; fill:none" points="2832.76,155.208 2813.86,155.208 "/>
<g clip-path="url(#clip100)">
<text style="fill:#000000; fill-opacity:1; font-family:Arial,Helvetica Neue,Helvetica,sans-serif; font-size:53px; text-anchor:middle;" transform="rotate(0, 147.925, 1610.16)" x="147.925" y="1610.16">0</text>
</g>
<g clip-path="url(#clip100)">
<text style="fill:#000000; fill-opacity:1; font-family:Arial,Helvetica Neue,Helvetica,sans-serif; font-size:53px; text-anchor:middle;" transform="rotate(0, 147.925, 1131.67)" x="147.925" y="1131.67">5</text>
</g>
<g clip-path="url(#clip100)">
<text style="fill:#000000; fill-opacity:1; font-family:Arial,Helvetica Neue,Helvetica,sans-serif; font-size:53px; text-anchor:middle;" transform="rotate(0, 132.871, 653.191)" x="132.871" y="653.191">10</text>
</g>
<g clip-path="url(#clip100)">
<text style="fill:#000000; fill-opacity:1; font-family:Arial,Helvetica Neue,Helvetica,sans-serif; font-size:53px; text-anchor:middle;" transform="rotate(0, 132.871, 174.708)" x="132.871" y="174.708">15</text>
</g>
<g clip-path="url(#clip100)">
<text style="fill:#000000; fill-opacity:1; font-family:Arial,Helvetica Neue,Helvetica,sans-serif; font-size:59px; text-anchor:middle;" transform="rotate(-90, 48.2889, 872.932)" x="48.2889" y="872.932">Reactive Price λᴼ [€/MVAr]</text>
</g>
<g clip-path="url(#clip100)">
<text style="fill:#000000; fill-opacity:1; font-family:Arial,Helvetica Neue,Helvetica,sans-serif; font-size:71px; text-anchor:start;" transform="rotate(0, 747.066, 78.8147)" x="747.066" y="78.8147">Reactive Power Prices — Three NO2 Generators</text>
</g>
<g clip-path="url(#clip100)">
<text style="fill:#000000; fill-opacity:1; font-family:Arial,Helvetica Neue,Helvetica,sans-serif; font-size:71px; text-anchor:start;" transform="rotate(0, 988.757, 154.264)" x="988.757" y="154.264">(Fairness F = 8.0  →  target F → 0)</text>
</g>
<path clip-path="url(#clip102)" d="M350.645 633.691 L350.645 1590.66 L854.843 1590.66 L854.843 633.691 L350.645 633.691 L350.645 633.691  Z" fill="#1e77b5" fill-rule="evenodd" fill-opacity="1"/>
<polyline clip-path="url(#clip102)" style="stroke:#000000; stroke-linecap:round; stroke-linejoin:round; stroke-width:8.8; stroke-opacity:1; fill:none" points="350.645,633.691 350.645,1590.66 854.843,1590.66 854.843,633.691 350.645,633.691 "/>
<path clip-path="url(#clip102)" d="M1267.37 442.298 L1267.37 1590.66 L1771.57 1590.66 L1771.57 442.298 L1267.37 442.298 L1267.37 442.298  Z" fill="#f97f14" fill-rule="evenodd" fill-opacity="1"/>
<polyline clip-path="url(#clip102)" style="stroke:#000000; stroke-linecap:round; stroke-linejoin:round; stroke-width:8.8; stroke-opacity:1; fill:none" points="1267.37,442.298 1267.37,1590.66 1771.57,1590.66 1771.57,442.298 1267.37,442.298 "/>
<path clip-path="url(#clip102)" d="M2184.09 825.084 L2184.09 1590.66 L2688.29 1590.66 L2688.29 825.084 L2184.09 825.084 L2184.09 825.084  Z" fill="#269e2d" fill-rule="evenodd" fill-opacity="1"/>
<polyline clip-path="url(#clip102)" style="stroke:#000000; stroke-linecap:round; stroke-linejoin:round; stroke-width:8.8; stroke-opacity:1; fill:none" points="2184.09,825.084 2184.09,1590.66 2688.29,1590.66 2688.29,825.084 2184.09,825.084 "/>
<circle clip-path="url(#clip102)" style="fill:#1e77b5; stroke:none; fill-opacity:0" cx="602.744" cy="633.691" r="2"/>
<circle clip-path="url(#clip102)" style="fill:#f97f14; stroke:none; fill-opacity:0" cx="1519.47" cy="442.298" r="2"/>
<circle clip-path="url(#clip102)" style="fill:#269e2d; stroke:none; fill-opacity:0" cx="2436.19" cy="825.084" r="2"/>
<polyline clip-path="url(#clip102)" style="stroke:#d62628; stroke-linecap:round; stroke-linejoin:round; stroke-width:8; stroke-opacity:1; fill:none" stroke-dasharray="32, 20" points="-2420.4,633.691 5459.33,633.691 "/>
<path clip-path="url(#clip100)" d="M1705.94 575.972 L1713.78 575.972 L1723.7 602.43 L1733.68 575.972 L1741.52 575.972 L1741.52 614.852 L1736.38 614.852 L1736.38 580.712 L1726.36 607.378 L1721.07 607.378 L1711.05 580.712 L1711.05 614.852 L1705.94 614.852 L1705.94 575.972 Z" fill="#d62628" fill-rule="nonzero" fill-opacity="1" /><path clip-path="url(#clip100)" d="M1776.7 599.071 L1776.7 601.415 L1754.67 601.415 Q1754.98 606.363 1757.63 608.967 Q1760.32 611.545 1765.08 611.545 Q1767.84 611.545 1770.42 610.868 Q1773.03 610.191 1775.58 608.836 L1775.58 613.368 Q1773 614.461 1770.29 615.034 Q1767.58 615.607 1764.8 615.607 Q1757.82 615.607 1753.73 611.545 Q1749.67 607.482 1749.67 600.555 Q1749.67 593.394 1753.52 589.201 Q1757.4 584.982 1763.96 584.982 Q1769.85 584.982 1773.26 588.784 Q1776.7 592.561 1776.7 599.071 M1771.91 597.665 Q1771.85 593.732 1769.69 591.389 Q1767.56 589.045 1764.02 589.045 Q1760 589.045 1757.58 591.311 Q1755.19 593.576 1754.82 597.691 L1771.91 597.665 Z" fill="#d62628" fill-rule="nonzero" fill-opacity="1" /><path clip-path="url(#clip100)" d="M1797.82 600.191 Q1792.01 600.191 1789.77 601.519 Q1787.53 602.847 1787.53 606.05 Q1787.53 608.602 1789.2 610.113 Q1790.89 611.597 1793.78 611.597 Q1797.76 611.597 1800.16 608.784 Q1802.58 605.946 1802.58 601.258 L1802.58 600.191 L1797.82 600.191 M1807.37 598.212 L1807.37 614.852 L1802.58 614.852 L1802.58 610.425 Q1800.94 613.081 1798.49 614.357 Q1796.05 615.607 1792.5 615.607 Q1788.03 615.607 1785.37 613.107 Q1782.74 610.581 1782.74 606.363 Q1782.74 601.441 1786.02 598.941 Q1789.33 596.441 1795.86 596.441 L1802.58 596.441 L1802.58 595.972 Q1802.58 592.665 1800.4 590.868 Q1798.23 589.045 1794.3 589.045 Q1791.8 589.045 1789.43 589.644 Q1787.06 590.243 1784.87 591.441 L1784.87 587.014 Q1787.5 585.998 1789.98 585.503 Q1792.45 584.982 1794.8 584.982 Q1801.12 584.982 1804.25 588.264 Q1807.37 591.545 1807.37 598.212 Z" fill="#d62628" fill-rule="nonzero" fill-opacity="1" /><path clip-path="url(#clip100)" d="M1841.49 597.248 L1841.49 614.852 L1836.7 614.852 L1836.7 597.404 Q1836.7 593.264 1835.08 591.206 Q1833.47 589.149 1830.24 589.149 Q1826.36 589.149 1824.12 591.623 Q1821.88 594.097 1821.88 598.368 L1821.88 614.852 L1817.06 614.852 L1817.06 585.686 L1821.88 585.686 L1821.88 590.217 Q1823.6 587.587 1825.92 586.285 Q1828.26 584.982 1831.31 584.982 Q1836.33 584.982 1838.91 588.107 Q1841.49 591.206 1841.49 597.248 Z" fill="#d62628" fill-rule="nonzero" fill-opacity="1" /><path clip-path="url(#clip100)" d="M1868.62 590.633 L1902.01 590.633 L1902.01 595.008 L1868.62 595.008 L1868.62 590.633 M1868.62 601.258 L1902.01 601.258 L1902.01 605.685 L1868.62 605.685 L1868.62 601.258 Z" fill="#d62628" fill-rule="nonzero" fill-opacity="1" /><path clip-path="url(#clip100)" d="M1931.23 610.425 L1939.82 610.425 L1939.82 580.764 L1930.47 582.639 L1930.47 577.847 L1939.77 575.972 L1945.03 575.972 L1945.03 610.425 L1953.62 610.425 L1953.62 614.852 L1931.23 614.852 L1931.23 610.425 Z" fill="#d62628" fill-rule="nonzero" fill-opacity="1" /><path clip-path="url(#clip100)" d="M1975.5 579.436 Q1971.44 579.436 1969.38 583.446 Q1967.35 587.43 1967.35 595.451 Q1967.35 603.446 1969.38 607.456 Q1971.44 611.441 1975.5 611.441 Q1979.59 611.441 1981.62 607.456 Q1983.68 603.446 1983.68 595.451 Q1983.68 587.43 1981.62 583.446 Q1979.59 579.436 1975.5 579.436 M1975.5 575.269 Q1982.03 575.269 1985.47 580.451 Q1988.94 585.607 1988.94 595.451 Q1988.94 605.269 1985.47 610.451 Q1982.03 615.607 1975.5 615.607 Q1968.96 615.607 1965.5 610.451 Q1962.06 605.269 1962.06 595.451 Q1962.06 585.607 1965.5 580.451 Q1968.96 575.269 1975.5 575.269 Z" fill="#d62628" fill-rule="nonzero" fill-opacity="1" /><path clip-path="url(#clip100)" d="M1998.18 608.238 L2003.68 608.238 L2003.68 614.852 L1998.18 614.852 L1998.18 608.238 Z" fill="#d62628" fill-rule="nonzero" fill-opacity="1" /><path clip-path="url(#clip100)" d="M2026.38 579.436 Q2022.32 579.436 2020.26 583.446 Q2018.23 587.43 2018.23 595.451 Q2018.23 603.446 2020.26 607.456 Q2022.32 611.441 2026.38 611.441 Q2030.47 611.441 2032.5 607.456 Q2034.56 603.446 2034.56 595.451 Q2034.56 587.43 2032.5 583.446 Q2030.47 579.436 2026.38 579.436 M2026.38 575.269 Q2032.92 575.269 2036.36 580.451 Q2039.82 585.607 2039.82 595.451 Q2039.82 605.269 2036.36 610.451 Q2032.92 615.607 2026.38 615.607 Q2019.85 615.607 2016.38 610.451 Q2012.95 605.269 2012.95 595.451 Q2012.95 585.607 2016.38 580.451 Q2019.85 575.269 2026.38 575.269 Z" fill="#d62628" fill-rule="nonzero" fill-opacity="1" /><path clip-path="url(#clip100)" d="M2090.71 578.967 L2090.71 584.514 Q2088.34 581.779 2086.12 580.607 Q2083.94 579.436 2081.28 579.436 Q2077.19 579.436 2074.56 582.04 Q2071.93 584.644 2071.1 589.514 L2086.12 589.514 L2084.69 592.717 L2070.68 592.717 Q2070.63 593.342 2070.6 593.941 Q2070.6 594.54 2070.6 595.451 Q2070.6 596.284 2070.6 596.883 Q2070.63 597.482 2070.68 598.107 L2082.29 598.107 L2080.84 601.31 L2071.1 601.31 Q2071.93 606.18 2074.56 608.81 Q2077.19 611.441 2081.28 611.441 Q2083.94 611.441 2086.12 610.269 Q2088.34 609.097 2090.71 606.363 L2090.71 611.857 Q2088.39 613.732 2085.97 614.67 Q2083.57 615.607 2081.07 615.607 Q2074.9 615.607 2070.86 611.831 Q2066.85 608.055 2065.81 601.31 L2060.32 601.31 L2061.75 598.107 L2065.37 598.107 Q2065.37 597.508 2065.34 596.909 Q2065.34 596.284 2065.34 595.451 Q2065.34 594.54 2065.34 593.941 Q2065.37 593.316 2065.37 592.717 L2060.32 592.717 L2061.75 589.514 L2065.81 589.514 Q2066.85 582.821 2070.89 579.045 Q2074.92 575.269 2081.07 575.269 Q2083.62 575.269 2086.02 576.206 Q2088.44 577.118 2090.71 578.967 Z" fill="#d62628" fill-rule="nonzero" fill-opacity="1" /><path clip-path="url(#clip100)" d="M2107.79 575.972 L2112.22 575.972 L2098.67 619.8 L2094.25 619.8 L2107.79 575.972 Z" fill="#d62628" fill-rule="nonzero" fill-opacity="1" /><path clip-path="url(#clip100)" d="M2117.45 575.972 L2125.29 575.972 L2135.21 602.43 L2145.18 575.972 L2153.02 575.972 L2153.02 614.852 L2147.89 614.852 L2147.89 580.712 L2137.87 607.378 L2132.58 607.378 L2122.55 580.712 L2122.55 614.852 L2117.45 614.852 L2117.45 575.972 Z" fill="#d62628" fill-rule="nonzero" fill-opacity="1" /><path clip-path="url(#clip100)" d="M2173.49 614.852 L2158.65 575.972 L2164.14 575.972 L2176.46 608.706 L2188.8 575.972 L2194.27 575.972 L2179.46 614.852 L2173.49 614.852 Z" fill="#d62628" fill-rule="nonzero" fill-opacity="1" /><path clip-path="url(#clip100)" d="M2209.53 581.154 L2202.4 600.503 L2216.69 600.503 L2209.53 581.154 M2206.56 575.972 L2212.53 575.972 L2227.35 614.852 L2221.88 614.852 L2218.34 604.878 L2200.81 604.878 L2197.27 614.852 L2191.72 614.852 L2206.56 575.972 Z" fill="#d62628" fill-rule="nonzero" fill-opacity="1" /><path clip-path="url(#clip100)" d="M2249.72 590.165 Q2248.91 589.696 2247.94 589.488 Q2247.01 589.253 2245.86 589.253 Q2241.8 589.253 2239.61 591.909 Q2237.45 594.54 2237.45 599.488 L2237.45 614.852 L2232.63 614.852 L2232.63 585.686 L2237.45 585.686 L2237.45 590.217 Q2238.96 587.561 2241.38 586.285 Q2243.8 584.982 2247.27 584.982 Q2247.76 584.982 2248.36 585.061 Q2248.96 585.113 2249.69 585.243 L2249.72 590.165 Z" fill="#d62628" fill-rule="nonzero" fill-opacity="1" /></svg>
