<?xml version="1.0" encoding="utf-8"?>
<svg xmlns="http://www.w3.org/2000/svg" xmlns:xlink="http://www.w3.org/1999/xlink" width="520" height="520" viewBox="0 0 2080 2080">
<defs>
  <clipPath id="clip280">
    <rect x="0" y="0" width="2080" height="2080"/>
  </clipPath>
</defs>
<path clip-path="url(#clip280)" d="M0 2080 L2080 2080 L2080 0 L0 0  Z" fill="#ffffff" fill-rule="evenodd" fill-opacity="1"/>
<defs>
  <clipPath id="clip281">
    <rect x="181" y="887" width="1865" height="1071"/>
  </clipPath>
</defs>
<path clip-path="url(#clip280)" d="M282.845 1861 L2032.76 1861 L2032.76 138.442 L282.845 138.442  Z" fill="#ffffff" fill-rule="evenodd" fill-opacity="1"/>
<defs>
  <clipPath id="clip282">
    <rect x="282" y="138" width="1751" height="1724"/>
  </clipPath>
</defs>
<polyline clip-path="url(#clip282)" style="stroke:#000000; stroke-linecap:round; stroke-linejoin:round; stroke-width:2; stroke-opacity:0.25; fill:none" points="332.371,1861 332.371,138.442 "/>
<polyline clip-path="url(#clip282)" style="stroke:#000000; stroke-linecap:round; stroke-linejoin:round; stroke-width:2; stroke-opacity:0.25; fill:none" points="745.086,1861 745.086,138.442 "/>
<polyline clip-path="url(#clip282)" style="stroke:#000000; stroke-linecap:round; stroke-linejoin:round; stroke-width:2; stroke-opacity:0.25; fill:none" points="1157.8,1861 1157.8,138.442 "/>
<polyline clip-path="url(#clip282)" style="stroke:#000000; stroke-linecap:round; stroke-linejoin:round; stroke-width:2; stroke-opacity:0.25; fill:none" points="1570.52,1861 1570.52,138.442 "/>
<polyline clip-path="url(#clip282)" style="stroke:#000000; stroke-linecap:round; stroke-linejoin:round; stroke-width:2; stroke-opacity:0.25; fill:none" points="1983.23,1861 1983.23,138.442 "/>
<polyline clip-path="url(#clip282)" style="stroke:#000000; stroke-linecap:round; stroke-linejoin:round; stroke-width:2; stroke-opacity:0.25; fill:none" points="332.371,1861 332.371,138.442 "/>
<polyline clip-path="url(#clip282)" style="stroke:#000000; stroke-linecap:round; stroke-linejoin:round; stroke-width:2; stroke-opacity:0.25; fill:none" points="745.086,1861 745.086,138.442 "/>
<polyline clip-path="url(#clip282)" style="stroke:#000000; stroke-linecap:round; stroke-linejoin:round; stroke-width:2; stroke-opacity:0.25; fill:none" points="1157.8,1861 1157.8,138.442 "/>
<polyline clip-path="url(#clip282)" style="stroke:#000000; stroke-linecap:round; stroke-linejoin:round; stroke-width:2; stroke-opacity:0.25; fill:none" points="1570.52,1861 1570.52,138.442 "/>
<polyline clip-path="url(#clip282)" style="stroke:#000000; stroke-linecap:round; stroke-linejoin:round; stroke-width:2; stroke-opacity:0.25; fill:none" points="1983.23,1861 1983.23,138.442 "/>
<polyline clip-path="url(#clip282)" style="stroke:#000000; stroke-linecap:round; stroke-linejoin:round; stroke-width:2; stroke-opacity:0.25; fill:none" points="282.845,1812.26 2032.76,1812.26 "/>
<polyline clip-path="url(#clip282)" style="stroke:#000000; stroke-linecap:round; stroke-linejoin:round; stroke-width:2; stroke-opacity:0.25; fill:none" points="282.845,1270.56 2032.76,1270.56 "/>
<polyline clip-path="url(#clip282)" style="stroke:#000000; stroke-linecap:round; stroke-linejoin:round; stroke-width:2; stroke-opacity:0.25; fill:none" points="282.845,728.861 2032.76,728.861 "/>
<polyline clip-path="url(#clip282)" style="stroke:#000000; stroke-linecap:round; stroke-linejoin:round; stroke-width:2; stroke-opacity:0.25; fill:none" points="282.845,187.16 2032.76,187.16 "/>
<polyline clip-path="url(#clip282)" style="stroke:#000000; stroke-linecap:round; stroke-linejoin:round; stroke-width:2; stroke-opacity:0.25; fill:none" points="282.845,1812.26 2032.76,1812.26 "/>
<polyline clip-path="url(#clip282)" style="stroke:#000000; stroke-linecap:round; stroke-linejoin:round; stroke-width:2; stroke-opacity:0.25; fill:none" points="282.845,1270.56 2032.76,1270.56 "/>
<polyline clip-path="url(#clip282)" style="stroke:#000000; stroke-linecap:round; stroke-linejoin:round; stroke-width:2; stroke-opacity:0.25; fill:none" points="282.845,728.861 2032.76,728.861 "/>
<polyline clip-path="url(#clip282)" style="stroke:#000000; stroke-linecap:round; stroke-linejoin:round; stroke-width:2; stroke-opacity:0.25; fill:none" points="282.845,187.16 2032.76,187.16 "/>
<polyline clip-path="url(#clip280)" style="stroke:#000000; stroke-linecap:round; stroke-linejoin:round; stroke-width:4; stroke-opacity:1; fill:none" points="282.845,1861 2032.76,1861 "/>
<polyline clip-path="url(#clip280)" style="stroke:#000000; stroke-linecap:round; stroke-linejoin:round; stroke-width:4; stroke-opacity:1; fill:none" points="282.845,138.442 2032.76,138.442 "/>
<polyline clip-path="url(#clip280)" style="stroke:#000000; stroke-linecap:round; stroke-linejoin:round; stroke-width:4; stroke-opacity:1; fill:none" points="332.371,1861 332.371,1842.1 "/>
<polyline clip-path="url(#clip280)" style="stroke:#000000; stroke-linecap:round; stroke-linejoin:round; stroke-width:4; stroke-opacity:1; fill:none" points="745.086,1861 745.086,1842.1 "/>
<polyline clip-path="url(#clip280)" style="stroke:#000000; stroke-linecap:round; stroke-linejoin:round; stroke-width:4; stroke-opacity:1; fill:none" points="1157.8,1861 1157.8,1842.1 "/>
<polyline clip-path="url(#clip280)" style="stroke:#000000; stroke-linecap:round; stroke-linejoin:round; stroke-width:4; stroke-opacity:1; fill:none" points="1570.52,1861 1570.52,1842.1 "/>
<polyline clip-path="url(#clip280)" style="stroke:#000000; stroke-linecap:round; stroke-linejoin:round; stroke-width:4; stroke-opacity:1; fill:none" points="1983.23,1861 1983.23,1842.1 "/>
<polyline clip-path="url(#clip280)" style="stroke:#000000; stroke-linecap:round; stroke-linejoin:round; stroke-width:4; stroke-opacity:1; fill:none" points="332.371,138.442 332.371,157.339 "/>
<polyline clip-path="url(#clip280)" style="stroke:#000000; stroke-linecap:round; stroke-linejoin:round; stroke-width:4; stroke-opacity:1; fill:none" points="745.086,138.442 745.086,157.339 "/>
<polyline clip-path="url(#clip280)" style="stroke:#000000; stroke-linecap:round; stroke-linejoin:round; stroke-width:4; stroke-opacity:1; fill:none" points="1157.8,138.442 1157.8,157.339 "/>
<polyline clip-path="url(#clip280)" style="stroke:#000000; stroke-linecap:round; stroke-linejoin:round; stroke-width:4; stroke-opacity:1; fill:none" points="1570.52,138.442 1570.52,157.339 "/>
<polyline clip-path="url(#clip280)" style="stroke:#000000; stroke-linecap:round; stroke-linejoin:round; stroke-width:4; stroke-opacity:1; fill:none" points="1983.23,138.442 1983.23,157.339 "/>
<g clip-path="url(#clip280)">
<text style="fill:#000000; fill-opacity:1; font-family:Arial,Helvetica Neue,Helvetica,sans-serif; font-size:53px; text-anchor:middle;" transform="rotate(0, 332.371, 1925.43)" x="332.371" y="1925.43">−400</text>
</g>
<g clip-path="url(#clip280)">
<text style="fill:#000000; fill-opacity:1; font-family:Arial,Helvetica Neue,Helvetica,sans-serif; font-size:53px; text-anchor:middle;" transform="rotate(0, 745.086, 1925.43)" x="745.086" y="1925.43">−200</text>
</g>
<g clip-path="url(#clip280)">
<text style="fill:#000000; fill-opacity:1; font-family:Arial,Helvetica Neue,Helvetica,sans-serif; font-size:53px; text-anchor:middle;" transform="rotate(0, 1157.8, 1925.43)" x="1157.8" y="1925.43">0</text>
</g>
<g clip-path="url(#clip280)">
<text style="fill:#000000; fill-opacity:1; font-family:Arial,Helvetica Neue,Helvetica,sans-serif; font-size:53px; text-anchor:middle;" transform="rotate(0, 1570.52, 1925.43)" x="1570.52" y="1925.43">200</text>
</g>
<g clip-path="url(#clip280)">
<text style="fill:#000000; fill-opacity:1; font-family:Arial,Helvetica Neue,Helvetica,sans-serif; font-size:53px; text-anchor:middle;" transform="rotate(0, 1983.23, 1925.43)" x="1983.23" y="1925.43">400</text>
</g>
<g clip-path="url(#clip280)">
<text style="fill:#000000; fill-opacity:1; font-family:Arial,Helvetica Neue,Helvetica,sans-serif; font-size:59px; text-anchor:middle;" transform="rotate(0, 1157.8, 2003.06)" x="1157.8" y="2003.06">Active Power P [MW]</text>
</g>
<polyline clip-path="url(#clip280)" style="stroke:#000000; stroke-linecap:round; stroke-linejoin:round; stroke-width:4; stroke-opacity:1; fill:none" points="282.845,1861 282.845,138.442 "/>
<polyline clip-path="url(#clip280)" style="stroke:#000000; stroke-linecap:round; stroke-linejoin:round; stroke-width:4; stroke-opacity:1; fill:none" points="2032.76,1861 2032.76,138.442 "/>
<polyline clip-path="url(#clip280)" style="stroke:#000000; stroke-linecap:round; stroke-linejoin:round; stroke-width:4; stroke-opacity:1; fill:none" points="282.845,1812.26 301.743,1812.26 "/>
<polyline clip-path="url(#clip280)" style="stroke:#000000; stroke-linecap:round; stroke-linejoin:round; stroke-width:4; stroke-opacity:1; fill:none" points="282.845,1270.56 301.743,1270.56 "/>
<polyline clip-path="url(#clip280)" style="stroke:#000000; stroke-linecap:round; stroke-linejoin:round; stroke-width:4; stroke-opacity:1; fill:none" points="282.845,728.861 301.743,728.861 "/>
<polyline clip-path="url(#clip280)" style="stroke:#000000; stroke-linecap:round; stroke-linejoin:round; stroke-width:4; stroke-opacity:1; fill:none" points="282.845,187.16 301.743,187.16 "/>
<polyline clip-path="url(#clip280)" style="stroke:#000000; stroke-linecap:round; stroke-linejoin:round; stroke-width:4; stroke-opacity:1; fill:none" points="2032.76,1812.26 2013.86,1812.26 "/>
<polyline clip-path="url(#clip280)" style="stroke:#000000; stroke-linecap:round; stroke-linejoin:round; stroke-width:4; stroke-opacity:1; fill:none" points="2032.76,1270.56 2013.86,1270.56 "/>
<polyline clip-path="url(#clip280)" style="stroke:#000000; stroke-linecap:round; stroke-linejoin:round; stroke-width:4; stroke-opacity:1; fill:none" points="2032.76,728.861 2013.86,728.861 "/>
<polyline clip-path="url(#clip280)" style="stroke:#000000; stroke-linecap:round; stroke-linejoin:round; stroke-width:4; stroke-opacity:1; fill:none" points="2032.76,187.16 2013.86,187.16 "/>
<g clip-path="url(#clip280)">
<text style="fill:#000000; fill-opacity:1; font-family:Arial,Helvetica Neue,Helvetica,sans-serif; font-size:53px; text-anchor:middle;" transform="rotate(0, 191.43, 1831.76)" x="191.43" y="1831.76">−100</text>
</g>
<g clip-path="url(#clip280)">
<text style="fill:#000000; fill-opacity:1; font-family:Arial,Helvetica Neue,Helvetica,sans-serif; font-size:53px; text-anchor:middle;" transform="rotate(0, 236.592, 1290.06)" x="236.592" y="1290.06">0</text>
</g>
<g clip-path="url(#clip280)">
<text style="fill:#000000; fill-opacity:1; font-family:Arial,Helvetica Neue,Helvetica,sans-serif; font-size:53px; text-anchor:middle;" transform="rotate(0, 206.484, 748.361)" x="206.484" y="748.361">100</text>
</g>
<g clip-path="url(#clip280)">
<text style="fill:#000000; fill-opacity:1; font-family:Arial,Helvetica Neue,Helvetica,sans-serif; font-size:53px; text-anchor:middle;" transform="rotate(0, 206.484, 206.66)" x="206.484" y="206.66">200</text>
</g>
<g clip-path="url(#clip280)">
<text style="fill:#000000; fill-opacity:1; font-family:Arial,Helvetica Neue,Helvetica,sans-serif; font-size:59px; text-anchor:middle;" transform="rotate(-90, 88.7402, 999.72)" x="88.7402" y="999.72">Reactive Power Q [MVAr]</text>
</g>
<g clip-path="url(#clip280)">
<text style="fill:#000000; fill-opacity:1; font-family:Arial,Helvetica Neue,Helvetica,sans-serif; font-size:71px; text-anchor:middle;" transform="rotate(0, 1157.8, 62.4)" x="1157.8" y="62.4">Generator P–Q Capability Diagram (Tonstad, 400 MW)</text>
</g>
<path clip-path="url(#clip282)" d="M1983.23 1270.56 L1983.13 1253.46 L1982.82 1236.36 L1982.3 1219.27 L1981.58 1202.19 L1980.66 1185.13 L1979.53 1168.09 L1978.2 1151.08 L1976.66 1134.1 L1974.91 1117.15 L1972.97 1100.24 L1970.82 1083.37 L1968.46 1066.54 L1965.91 1049.77 L1963.15 1033.06 L1960.19 1016.4 L1957.04 999.806 L1953.68 983.279 L1950.13 966.824 L1946.38 950.445 L1942.43 934.146 L1938.28 917.931 L1933.94 901.803 L1929.41 885.767 L1924.69 869.827 L1919.77 853.987 L1914.67 838.251 L1909.37 822.623 L1903.89 807.106 L1898.23 791.705 L1892.37 776.423 L1886.34 761.264 L1880.12 746.233 L1873.73 731.331 L1867.15 716.565 L1860.4 701.936 L1853.47 687.449 L1846.37 673.107 L1839.1 658.915 L1831.66 644.874 L1824.05 630.99 L1816.28 617.265 L1808.34 603.703 L1800.24 590.307 L1791.97 577.08 L1783.55 564.027 L1774.98 551.149 L1766.25 538.451 L1757.37 525.935 L1748.34 513.605 L1739.16 501.463 L1729.84 489.513 L1720.37 477.758 L1710.77 466.2 L1701.02 454.843 L1691.14 443.689 L1681.13 432.742 L1670.99 422.003 L1660.72 411.475 L1650.33 401.162 L1639.81 391.065 L1629.17 381.187 L1618.41 371.531 L1607.54 362.1 L1596.56 352.894 L1585.47 343.917 L1574.27 335.172 L1562.97 326.659 L1551.57 318.381 L1540.06 310.341 L1528.47 302.54 L1516.78 294.981 L1505 287.664 L1493.14 280.593 L1481.19 273.768 L1469.16 267.192 L1457.05 260.865 L1444.87 254.791 L1432.62 248.969 L1420.3 243.402 L1407.91 238.091 L1395.46 233.038 L1382.95 228.243 L1370.39 223.708 L1357.77 219.433 L1345.1 215.421 L1332.39 211.671 L1319.63 208.186 L1306.83 204.965 L1294 202.01 L1281.13 199.321 L1268.23 196.899 L1255.3 194.745 L1242.35 192.859 L1229.38 191.241 L1216.39 189.892 L1203.39 188.813 L1190.37 188.003 L1177.35 187.463 L1164.32 187.193 L1151.29 187.193 L1138.26 187.463 L1125.23 188.003 L1112.22 188.813 L1099.21 189.892 L1086.22 191.241 L1073.25 192.859 L1060.3 194.745 L1047.37 196.899 L1034.47 199.321 L1021.6 202.01 L1008.77 204.965 L995.969 208.186 L983.211 211.671 L970.497 215.421 L957.83 219.433 L945.213 223.708 L932.648 228.243 L920.14 233.038 L907.691 238.091 L895.305 243.402 L882.983 248.969 L870.73 254.791 L858.549 260.865 L846.443 267.192 L834.414 273.768 L822.465 280.593 L810.6 287.664 L798.822 294.981 L787.133 302.54 L775.536 310.341 L764.035 318.381 L752.632 326.659 L741.33 335.172 L730.132 343.917 L719.04 352.894 L708.057 362.1 L697.187 371.531 L686.431 381.187 L675.793 391.065 L665.276 401.162 L654.88 411.475 L644.61 422.003 L634.469 432.742 L624.457 443.689 L614.578 454.843 L604.835 466.2 L595.23 477.758 L585.765 489.513 L576.442 501.463 L567.264 513.605 L558.234 525.935 L549.352 538.451 L540.623 551.149 L532.047 564.027 L523.627 577.08 L515.366 590.307 L507.264 603.703 L499.325 617.265 L491.549 630.99 L483.94 644.874 L476.499 658.915 L469.227 673.107 L462.127 687.449 L455.2 701.936 L448.449 716.565 L441.874 731.331 L435.478 746.233 L429.262 761.264 L423.227 776.423 L417.375 791.705 L411.708 807.106 L406.227 822.623 L400.933 838.251 L395.828 853.987 L390.913 869.827 L386.188 885.767 L381.657 901.803 L377.318 917.931 L373.174 934.146 L369.226 950.445 L365.474 966.824 L361.919 983.279 L358.563 999.806 L355.407 1016.4 L352.45 1033.06 L349.693 1049.77 L347.139 1066.54 L344.786 1083.37 L342.636 1100.24 L340.689 1117.15 L338.945 1134.1 L337.406 1151.08 L336.071 1168.09 L334.941 1185.13 L334.016 1202.19 L333.297 1219.27 L332.783 1236.36 L332.474 1253.46 L332.371 1270.56 L1983.23 1270.56 L1983.13 1279.11 L1982.82 1287.66 L1982.3 1296.21 L1981.58 1304.75 L1980.66 1313.28 L1979.53 1321.8 L1978.2 1330.3 L1976.66 1338.79 L1974.91 1347.27 L1972.97 1355.73 L1970.82 1364.16 L1968.46 1372.57 L1965.91 1380.96 L1963.15 1389.31 L1960.19 1397.64 L1957.04 1405.94 L1953.68 1414.2 L1950.13 1422.43 L1946.38 1430.62 L1942.43 1438.77 L1938.28 1446.88 L1933.94 1454.94 L1929.41 1462.96 L1924.69 1470.93 L1919.77 1478.85 L1914.67 1486.72 L1909.37 1494.53 L1903.89 1502.29 L1898.23 1509.99 L1892.37 1517.63 L1886.34 1525.21 L1880.12 1532.73 L1873.73 1540.18 L1867.15 1547.56 L1860.4 1554.88 L1853.47 1562.12 L1846.37 1569.29 L1839.1 1576.39 L1831.66 1583.41 L1824.05 1590.35 L1816.28 1597.21 L1808.34 1603.99 L1800.24 1610.69 L1791.97 1617.3 L1783.55 1623.83 L1774.98 1630.27 L1766.25 1636.62 L1757.37 1642.88 L1748.34 1649.04 L1739.16 1655.11 L1729.84 1661.09 L1720.37 1666.96 L1710.77 1672.74 L1701.02 1678.42 L1691.14 1684 L1681.13 1689.47 L1670.99 1694.84 L1660.72 1700.11 L1650.33 1705.26 L1639.81 1710.31 L1629.17 1715.25 L1618.41 1720.08 L1607.54 1724.79 L1596.56 1729.4 L1585.47 1733.88 L1574.27 1738.26 L1562.97 1742.51 L1551.57 1746.65 L1540.06 1750.67 L1528.47 1754.57 L1516.78 1758.35 L1505 1762.01 L1493.14 1765.55 L1481.19 1768.96 L1469.16 1772.25 L1457.05 1775.41 L1444.87 1778.45 L1432.62 1781.36 L1420.3 1784.14 L1407.91 1786.8 L1395.46 1789.32 L1382.95 1791.72 L1370.39 1793.99 L1357.77 1796.13 L1345.1 1798.13 L1332.39 1800.01 L1319.63 1801.75 L1306.83 1803.36 L1294 1804.84 L1281.13 1806.18 L1268.23 1807.39 L1255.3 1808.47 L1242.35 1809.41 L1229.38 1810.22 L1216.39 1810.9 L1203.39 1811.44 L1190.37 1811.84 L1177.35 1812.11 L1164.32 1812.25 L1151.29 1812.25 L1138.26 1812.11 L1125.23 1811.84 L1112.22 1811.44 L1099.21 1810.9 L1086.22 1810.22 L1073.25 1809.41 L1060.3 1808.47 L1047.37 1807.39 L1034.47 1806.18 L1021.6 1804.84 L1008.77 1803.36 L995.969 1801.75 L983.211 1800.01 L970.497 1798.13 L957.83 1796.13 L945.213 1793.99 L932.648 1791.72 L920.14 1789.32 L907.691 1786.8 L895.305 1784.14 L882.983 1781.36 L870.73 1778.45 L858.549 1775.41 L846.443 1772.25 L834.414 1768.96 L822.465 1765.55 L810.6 1762.01 L798.822 1758.35 L787.133 1754.57 L775.536 1750.67 L764.035 1746.65 L752.632 1742.51 L741.33 1738.26 L730.132 1733.88 L719.04 1729.4 L708.057 1724.79 L697.187 1720.08 L686.431 1715.25 L675.793 1710.31 L665.276 1705.26 L654.88 1700.11 L644.61 1694.84 L634.469 1689.47 L624.457 1684 L614.578 1678.42 L604.835 1672.74 L595.23 1666.96 L585.765 1661.09 L576.442 1655.11 L567.264 1649.04 L558.234 1642.88 L549.352 1636.62 L540.623 1630.27 L532.047 1623.83 L523.627 1617.3 L515.366 1610.69 L507.264 1603.99 L499.325 1597.21 L491.549 1590.35 L483.94 1583.41 L476.499 1576.39 L469.227 1569.29 L462.127 1562.12 L455.2 1554.88 L448.449 1547.56 L441.874 1540.18 L435.478 1532.73 L429.262 1525.21 L423.227 1517.63 L417.375 1509.99 L411.708 1502.29 L406.227 1494.53 L400.933 1486.72 L395.828 1478.85 L390.913 1470.93 L386.188 1462.96 L381.657 1454.94 L377.318 1446.88 L373.174 1438.77 L369.226 1430.62 L365.474 1422.43 L361.919 1414.2 L358.563 1405.94 L355.407 1397.64 L352.45 1389.31 L349.693 1380.96 L347.139 1372.57 L344.786 1364.16 L342.636 1355.73 L340.689 1347.27 L338.945 1338.79 L337.406 1330.3 L336.071 1321.8 L334.941 1313.28 L334.016 1304.75 L333.297 1296.21 L332.783 1287.66 L332.474 1279.11 L332.371 1270.56 L332.371 1270.56 L332.474 1270.56 L332.783 1270.56 L333.297 1270.56 L334.016 1270.56 L334.941 1270.56 L336.071 1270.56 L337.406 1270.56 L338.945 1270.56 L340.689 1270.56 L342.636 1270.56 L344.786 1270.56 L347.139 1270.56 L349.693 1270.56 L352.45 1270.56 L355.407 1270.56 L358.563 1270.56 L361.919 1270.56 L365.474 1270.56 L369.226 1270.56 L373.174 1270.56 L377.318 1270.56 L381.657 1270.56 L386.188 1270.56 L390.913 1270.56 L395.828 1270.56 L400.933 1270.56 L406.227 1270.56 L411.708 1270.56 L417.375 1270.56 L423.227 1270.56 L429.262 1270.56 L435.478 1270.56 L441.874 1270.56 L448.449 1270.56 L455.2 1270.56 L462.127 1270.56 L469.227 1270.56 L476.499 1270.56 L483.94 1270.56 L491.549 1270.56 L499.325 1270.56 L507.264 1270.56 L515.366 1270.56 L523.627 1270.56 L532.047 1270.56 L540.623 1270.56 L549.352 1270.56 L558.234 1270.56 L567.264 1270.56 L576.442 1270.56 L585.765 1270.56 L595.23 1270.56 L604.835 1270.56 L614.578 1270.56 L624.457 1270.56 L634.469 1270.56 L644.61 1270.56 L654.88 1270.56 L665.276 1270.56 L675.793 1270.56 L686.431 1270.56 L697.187 1270.56 L708.057 1270.56 L719.04 1270.56 L730.132 1270.56 L741.33 1270.56 L752.632 1270.56 L764.035 1270.56 L775.536 1270.56 L787.133 1270.56 L798.822 1270.56 L810.6 1270.56 L822.465 1270.56 L834.414 1270.56 L846.443 1270.56 L858.549 1270.56 L870.73 1270.56 L882.983 1270.56 L895.305 1270.56 L907.691 1270.56 L920.14 1270.56 L932.648 1270.56 L945.213 1270.56 L957.83 1270.56 L970.497 1270.56 L983.211 1270.56 L995.969 1270.56 L1008.77 1270.56 L1021.6 1270.56 L1034.47 1270.56 L1047.37 1270.56 L1060.3 1270.56 L1073.25 1270.56 L1086.22 1270.56 L1099.21 1270.56 L1112.22 1270.56 L1125.23 1270.56 L1138.26 1270.56 L1151.29 1270.56 L1164.32 1270.56 L1177.35 1270.56 L1190.37 1270.56 L1203.39 1270.56 L1216.39 1270.56 L1229.38 1270.56 L1242.35 1270.56 L1255.3 1270.56 L1268.23 1270.56 L1281.13 1270.56 L1294 1270.56 L1306.83 1270.56 L1319.63 1270.56 L1332.39 1270.56 L1345.1 1270.56 L1357.77 1270.56 L1370.39 1270.56 L1382.95 1270.56 L1395.46 1270.56 L1407.91 1270.56 L1420.3 1270.56 L1432.62 1270.56 L1444.87 1270.56 L1457.05 1270.56 L1469.16 1270.56 L1481.19 1270.56 L1493.14 1270.56 L1505 1270.56 L1516.78 1270.56 L1528.47 1270.56 L1540.06 1270.56 L1551.57 1270.56 L1562.97 1270.56 L1574.27 1270.56 L1585.47 1270.56 L1596.56 1270.56 L1607.54 1270.56 L1618.41 1270.56 L1629.17 1270.56 L1639.81 1270.56 L1650.33 1270.56 L1660.72 1270.56 L1670.99 1270.56 L1681.13 1270.56 L1691.14 1270.56 L1701.02 1270.56 L1710.77 1270.56 L1720.37 1270.56 L1729.84 1270.56 L1739.16 1270.56 L1748.34 1270.56 L1757.37 1270.56 L1766.25 1270.56 L1774.98 1270.56 L1783.55 1270.56 L1791.97 1270.56 L1800.24 1270.56 L1808.34 1270.56 L1816.28 1270.56 L1824.05 1270.56 L1831.66 1270.56 L1839.1 1270.56 L1846.37 1270.56 L1853.47 1270.56 L1860.4 1270.56 L1867.15 1270.56 L1873.73 1270.56 L1880.12 1270.56 L1886.34 1270.56 L1892.37 1270.56 L1898.23 1270.56 L1903.89 1270.56 L1909.37 1270.56 L1914.67 1270.56 L1919.77 1270.56 L1924.69 1270.56 L1929.41 1270.56 L1933.94 1270.56 L1938.28 1270.56 L1942.43 1270.56 L1946.38 1270.56 L1950.13 1270.56 L1953.68 1270.56 L1957.04 1270.56 L1960.19 1270.56 L1963.15 1270.56 L1965.91 1270.56 L1968.46 1270.56 L1970.82 1270.56 L1972.97 1270.56 L1974.91 1270.56 L1976.66 1270.56 L1978.2 1270.56 L1979.53 1270.56 L1980.66 1270.56 L1981.58 1270.56 L1982.3 1270.56 L1982.82 1270.56 L1983.13 1270.56 L1983.23 1270.56 L332.371 1270.56 L332.474 1270.56 L332.783 1270.56 L333.297 1270.56 L334.016 1270.56 L334.941 1270.56 L336.071 1270.56 L337.406 1270.56 L338.945 1270.56 L340.689 1270.56 L342.636 1270.56 L344.786 1270.56 L347.139 1270.56 L349.693 1270.56 L352.45 1270.56 L355.407 1270.56 L358.563 1270.56 L361.919 1270.56 L365.474 1270.56 L369.226 1270.56 L373.174 1270.56 L377.318 1270.56 L381.657 1270.56 L386.188 1270.56 L390.913 1270.56 L395.828 1270.56 L400.933 1270.56 L406.227 1270.56 L411.708 1270.56 L417.375 1270.56 L423.227 1270.56 L429.262 1270.56 L435.478 1270.56 L441.874 1270.56 L448.449 1270.56 L455.2 1270.56 L462.127 1270.56 L469.227 1270.56 L476.499 1270.56 L483.94 1270.56 L491.549 1270.56 L499.325 1270.56 L507.264 1270.56 L515.366 1270.56 L523.627 1270.56 L532.047 1270.56 L540.623 1270.56 L549.352 1270.56 L558.234 1270.56 L567.264 1270.56 L576.442 1270.56 L585.765 1270.56 L595.23 1270.56 L604.835 1270.56 L614.578 1270.56 L624.457 1270.56 L634.469 1270.56 L644.61 1270.56 L654.88 1270.56 L665.276 1270.56 L675.793 1270.56 L686.431 1270.56 L697.187 1270.56 L708.057 1270.56 L719.04 1270.56 L730.132 1270.56 L741.33 1270.56 L752.632 1270.56 L764.035 1270.56 L775.536 1270.56 L787.133 1270.56 L798.822 1270.56 L810.6 1270.56 L822.465 1270.56 L834.414 1270.56 L846.443 1270.56 L858.549 1270.56 L870.73 1270.56 L882.983 1270.56 L895.305 1270.56 L907.691 1270.56 L920.14 1270.56 L932.648 1270.56 L945.213 1270.56 L957.83 1270.56 L970.497 1270.56 L983.211 1270.56 L995.969 1270.56 L1008.77 1270.56 L1021.6 1270.56 L1034.47 1270.56 L1047.37 1270.56 L1060.3 1270.56 L1073.25 1270.56 L1086.22 1270.56 L1099.21 1270.56 L1112.22 1270.56 L1125.23 1270.56 L1138.26 1270.56 L1151.29 1270.56 L1164.32 1270.56 L1177.35 1270.56 L1190.37 1270.56 L1203.39 1270.56 L1216.39 1270.56 L1229.38 1270.56 L1242.35 1270.56 L1255.3 1270.56 L1268.23 1270.56 L1281.13 1270.56 L1294 1270.56 L1306.83 1270.56 L1319.63 1270.56 L1332.39 1270.56 L1345.1 1270.56 L1357.77 1270.56 L1370.39 1270.56 L1382.95 1270.56 L1395.46 1270.56 L1407.91 1270.56 L1420.3 1270.56 L1432.62 1270.56 L1444.87 1270.56 L1457.05 1270.56 L1469.16 1270.56 L1481.19 1270.56 L1493.14 1270.56 L1505 1270.56 L1516.78 1270.56 L1528.47 1270.56 L1540.06 1270.56 L1551.57 1270.56 L1562.97 1270.56 L1574.27 1270.56 L1585.47 1270.56 L1596.56 1270.56 L1607.54 1270.56 L1618.41 1270.56 L1629.17 1270.56 L1639.81 1270.56 L1650.33 1270.56 L1660.72 1270.56 L1670.99 1270.56 L1681.13 1270.56 L1691.14 1270.56 L1701.02 1270.56 L1710.77 1270.56 L1720.37 1270.56 L1729.84 1270.56 L1739.16 1270.56 L1748.34 1270.56 L1757.37 1270.56 L1766.25 1270.56 L1774.98 1270.56 L1783.55 1270.56 L1791.97 1270.56 L1800.24 1270.56 L1808.34 1270.56 L1816.28 1270.56 L1824.05 1270.56 L1831.66 1270.56 L1839.1 1270.56 L1846.37 1270.56 L1853.47 1270.56 L1860.4 1270.56 L1867.15 1270.56 L1873.73 1270.56 L1880.12 1270.56 L1886.34 1270.56 L1892.37 1270.56 L1898.23 1270.56 L1903.89 1270.56 L1909.37 1270.56 L1914.67 1270.56 L1919.77 1270.56 L1924.69 1270.56 L1929.41 1270.56 L1933.94 1270.56 L1938.28 1270.56 L1942.43 1270.56 L1946.38 1270.56 L1950.13 1270.56 L1953.68 1270.56 L1957.04 1270.56 L1960.19 1270.56 L1963.15 1270.56 L1965.91 1270.56 L1968.46 1270.56 L1970.82 1270.56 L1972.97 1270.56 L1974.91 1270.56 L1976.66 1270.56 L1978.2 1270.56 L1979.53 1270.56 L1980.66 1270.56 L1981.58 1270.56 L1982.3 1270.56 L1982.82 1270.56 L1983.13 1270.56 L1983.23 1270.56  Z" fill="#1e77b5" fill-rule="evenodd" fill-opacity="0.08"/>
<polyline clip-path="url(#clip282)" style="stroke:#1e77b5; stroke-linecap:round; stroke-linejoin:round; stroke-width:8.8; stroke-opacity:1; fill:none" points="1983.23,1270.56 1983.13,1253.46 1982.82,1236.36 1982.3,1219.27 1981.58,1202.19 1980.66,1185.13 1979.53,1168.09 1978.2,1151.08 1976.66,1134.1 1974.91,1117.15 1972.97,1100.24 1970.82,1083.37 1968.46,1066.54 1965.91,1049.77 1963.15,1033.06 1960.19,1016.4 1957.04,999.806 1953.68,983.279 1950.13,966.824 1946.38,950.445 1942.43,934.146 1938.28,917.931 1933.94,901.803 1929.41,885.767 1924.69,869.827 1919.77,853.987 1914.67,838.251 1909.37,822.623 1903.89,807.106 1898.23,791.705 1892.37,776.423 1886.34,761.264 1880.12,746.233 1873.73,731.331 1867.15,716.565 1860.4,701.936 1853.47,687.449 1846.37,673.107 1839.1,658.915 1831.66,644.874 1824.05,630.99 1816.28,617.265 1808.34,603.703 1800.24,590.307 1791.97,577.08 1783.55,564.027 1774.98,551.149 1766.25,538.451 1757.37,525.935 1748.34,513.605 1739.16,501.463 1729.84,489.513 1720.37,477.758 1710.77,466.2 1701.02,454.843 1691.14,443.689 1681.13,432.742 1670.99,422.003 1660.72,411.475 1650.33,401.162 1639.81,391.065 1629.17,381.187 1618.41,371.531 1607.54,362.1 1596.56,352.894 1585.47,343.917 1574.27,335.172 1562.97,326.659 1551.57,318.381 1540.06,310.341 1528.47,302.54 1516.78,294.981 1505,287.664 1493.14,280.593 1481.19,273.768 1469.16,267.192 1457.05,260.865 1444.87,254.791 1432.62,248.969 1420.3,243.402 1407.91,238.091 1395.46,233.038 1382.95,228.243 1370.39,223.708 1357.77,219.433 1345.1,215.421 1332.39,211.671 1319.63,208.186 1306.83,204.965 1294,202.01 1281.13,199.321 1268.23,196.899 1255.3,194.745 1242.35,192.859 1229.38,191.241 1216.39,189.892 1203.39,188.813 1190.37,188.003 1177.35,187.463 1164.32,187.193 1151.29,187.193 1138.26,187.463 1125.23,188.003 1112.22,188.813 1099.21,189.892 1086.22,191.241 1073.25,192.859 1060.3,194.745 1047.37,196.899 1034.47,199.321 1021.6,202.01 1008.77,204.965 995.969,208.186 983.211,211.671 970.497,215.421 957.83,219.433 945.213,223.708 932.648,228.243 920.14,233.038 907.691,238.091 895.305,243.402 882.983,248.969 870.73,254.791 858.549,260.865 846.443,267.192 834.414,273.768 822.465,280.593 810.6,287.664 798.822,294.981 787.133,302.54 775.536,310.341 764.035,318.381 752.632,326.659 741.33,335.172 730.132,343.917 719.04,352.894 708.057,362.1 697.187,371.531 686.431,381.187 675.793,391.065 665.276,401.162 654.88,411.475 644.61,422.003 634.469,432.742 624.457,443.689 614.578,454.843 604.835,466.2 595.23,477.758 585.765,489.513 576.442,501.463 567.264,513.605 558.234,525.935 549.352,538.451 540.623,551.149 532.047,564.027 523.627,577.08 515.366,590.307 507.264,603.703 499.325,617.265 491.549,630.99 483.94,644.874 476.499,658.915 469.227,673.107 462.127,687.449 455.2,701.936 448.449,716.565 441.874,731.331 435.478,746.233 429.262,761.264 423.227,776.423 417.375,791.705 411.708,807.106 406.227,822.623 400.933,838.251 395.828,853.987 390.913,869.827 386.188,885.767 381.657,901.803 377.318,917.931 373.174,934.146 369.226,950.445 365.474,966.824 361.919,983.279 358.563,999.806 355.407,1016.4 352.45,1033.06 349.693,1049.77 347.139,1066.54 344.786,1083.37 342.636,1100.24 340.689,1117.15 338.945,1134.1 337.406,1151.08 336.071,1168.09 334.941,1185.13 334.016,1202.19 333.297,1219.27 332.783,1236.36 332.474,1253.46 332.371,1270.56 1983.23,1270.56 1983.13,1279.11 1982.82,1287.66 1982.3,1296.21 1981.58,1304.75 1980.66,1313.28 1979.53,1321.8 1978.2,1330.3 1976.66,1338.79 1974.91,1347.27 1972.97,1355.73 1970.82,1364.16 1968.46,1372.57 1965.91,1380.96 1963.15,1389.31 1960.19,1397.64 1957.04,1405.94 1953.68,1414.2 1950.13,1422.43 1946.38,1430.62 1942.43,1438.77 1938.28,1446.88 1933.94,1454.94 1929.41,1462.96 1924.69,1470.93 1919.77,1478.85 1914.67,1486.72 1909.37,1494.53 1903.89,1502.29 1898.23,1509.99 1892.37,1517.63 1886.34,1525.21 1880.12,1532.73 1873.73,1540.18 1867.15,1547.56 1860.4,1554.88 1853.47,1562.12 1846.37,1569.29 1839.1,1576.39 1831.66,1583.41 1824.05,1590.35 1816.28,1597.21 1808.34,1603.99 1800.24,1610.69 1791.97,1617.3 1783.55,1623.83 1774.98,1630.27 1766.25,1636.62 1757.37,1642.88 1748.34,1649.04 1739.16,1655.11 1729.84,1661.09 1720.37,1666.96 1710.77,1672.74 1701.02,1678.42 1691.14,1684 1681.13,1689.47 1670.99,1694.84 1660.72,1700.11 1650.33,1705.26 1639.81,1710.31 1629.17,1715.25 1618.41,1720.08 1607.54,1724.79 1596.56,1729.4 1585.47,1733.88 1574.27,1738.26 1562.97,1742.51 1551.57,1746.65 1540.06,1750.67 1528.47,1754.57 1516.78,1758.35 1505,1762.01 1493.14,1765.55 1481.19,1768.96 1469.16,1772.25 1457.05,1775.41 1444.87,1778.45 1432.62,1781.36 1420.3,1784.14 1407.91,1786.8 1395.46,1789.32 1382.95,1791.72 1370.39,1793.99 1357.77,1796.13 1345.1,1798.13 1332.39,1800.01 1319.63,1801.75 1306.83,1803.36 1294,1804.84 1281.13,1806.18 1268.23,1807.39 1255.3,1808.47 1242.35,1809.41 1229.38,1810.22 1216.39,1810.9 1203.39,1811.44 1190.37,1811.84 1177.35,1812.11 1164.32,1812.25 1151.29,1812.25 1138.26,1812.11 1125.23,1811.84 1112.22,1811.44 1099.21,1810.9 1086.22,1810.22 1073.25,1809.41 1060.3,1808.47 1047.37,1807.39 1034.47,1806.18 1021.6,1804.84 1008.77,1803.36 995.969,1801.75 983.211,1800.01 970.497,1798.13 957.83,1796.13 945.213,1793.99 932.648,1791.72 920.14,1789.32 907.691,1786.8 895.305,1784.14 882.983,1781.36 870.73,1778.45 858.549,1775.41 846.443,1772.25 834.414,1768.96 822.465,1765.55 810.6,1762.01 798.822,1758.35 787.133,1754.57 775.536,1750.67 764.035,1746.65 752.632,1742.51 741.33,1738.26 730.132,1733.88 719.04,1729.4 708.057,1724.79 697.187,1720.08 686.431,1715.25 675.793,1710.31 665.276,1705.26 654.88,1700.11 644.61,1694.84 634.469,1689.47 624.457,1684 614.578,1678.42 604.835,1672.74 595.23,1666.96 585.765,1661.09 576.442,1655.11 567.264,1649.04 558.234,1642.88 549.352,1636.62 540.623,1630.27 532.047,1623.83 523.627,1617.3 515.366,1610.69 507.264,1603.99 499.325,1597.21 491.549,1590.35 483.94,1583.41 476.499,1576.39 469.227,1569.29 462.127,1562.12 455.2,1554.88 448.449,1547.56 441.874,1540.18 435.478,1532.73 429.262,1525.21 423.227,1517.63 417.375,1509.99 411.708,1502.29 406.227,1494.53 400.933,1486.72 395.828,1478.85 390.913,1470.93 386.188,1462.96 381.657,1454.94 377.318,1446.88 373.174,1438.77 369.226,1430.62 365.474,1422.43 361.919,1414.2 358.563,1405.94 355.407,1397.64 352.45,1389.31 349.693,1380.96 347.139,1372.57 344.786,1364.16 342.636,1355.73 340.689,1347.27 338.945,1338.79 337.406,1330.3 336.071,1321.8 334.941,1313.28 334.016,1304.75 333.297,1296.21 332.783,1287.66 332.474,1279.11 332.371,1270.56 "/>
<polyline clip-path="url(#clip282)" style="stroke:#000000; stroke-linecap:round; stroke-linejoin:round; stroke-width:3.2; stroke-opacity:1; fill:none" points="-1467.07,1270.56 3782.67,1270.56 "/>
<polyline clip-path="url(#clip282)" style="stroke:#000000; stroke-linecap:round; stroke-linejoin:round; stroke-width:3.2; stroke-opacity:1; fill:none" points="1157.8,3583.55 1157.8,-1584.11 "/>
<circle clip-path="url(#clip282)" cx="1295.37" cy="1270.56" r="32.4" fill="#269e2d" fill-rule="evenodd" fill-opacity="1" stroke="#000000" stroke-opacity="1" stroke-width="4.16"/>
<circle clip-path="url(#clip282)" cx="1398.55" cy="1270.56" r="32.4" fill="#e57f19" fill-rule="evenodd" fill-opacity="1" stroke="#000000" stroke-opacity="1" stroke-width="4.16"/>
<circle clip-path="url(#clip282)" cx="1501.73" cy="1135.14" r="32.4" fill="#d62628" fill-rule="evenodd" fill-opacity="1" stroke="#000000" stroke-opacity="1" stroke-width="4.16"/>
<path clip-path="url(#clip280)" d="M1320.91 478.796 L1974.43 478.796 L1974.43 195.86 L1320.91 195.86  Z" fill="#ffffff" fill-rule="evenodd" fill-opacity="1"/>
<polyline clip-path="url(#clip280)" style="stroke:#000000; stroke-linecap:round; stroke-linejoin:round; stroke-width:4; stroke-opacity:1; fill:none" points="1320.91,478.796 1974.43,478.796 1974.43,195.86 1320.91,195.86 1320.91,478.796 "/>
<path clip-path="url(#clip280)" d="M1340.35 275.082 L1457.01 275.082 L1457.01 229.813 L1340.35 229.813 L1340.35 275.082  Z" fill="#1e77b5" fill-rule="evenodd" fill-opacity="0.08"/>
<polyline clip-path="url(#clip280)" style="stroke:#1e77b5; stroke-linecap:round; stroke-linejoin:round; stroke-width:9.9; stroke-opacity:1; fill:none" points="1340.35,229.813 1457.01,229.813 "/>
<g clip-path="url(#clip280)">
<text style="fill:#000000; fill-opacity:1; font-family:Arial,Helvetica Neue,Helvetica,sans-serif; font-size:53px; text-anchor:start;" transform="rotate(0, 1476.45, 271.947)" x="1476.45" y="271.947">Capability boundary</text>
</g>
<circle clip-path="url(#clip280)" cx="1398.68" cy="309.035" r="24.5558" fill="#269e2d" fill-rule="evenodd" fill-opacity="1" stroke="#000000" stroke-opacity="1" stroke-width="3.15284"/>
<g clip-path="url(#clip280)">
<text style="fill:#000000; fill-opacity:1; font-family:Arial,Helvetica Neue,Helvetica,sans-serif; font-size:53px; text-anchor:start;" transform="rotate(0, 1476.45, 328.535)" x="1476.45" y="328.535">P_d=200</text>
</g>
<circle clip-path="url(#clip280)" cx="1398.68" cy="365.622" r="24.5558" fill="#e57f19" fill-rule="evenodd" fill-opacity="1" stroke="#000000" stroke-opacity="1" stroke-width="3.15284"/>
<g clip-path="url(#clip280)">
<text style="fill:#000000; fill-opacity:1; font-family:Arial,Helvetica Neue,Helvetica,sans-serif; font-size:53px; text-anchor:start;" transform="rotate(0, 1476.45, 385.122)" x="1476.45" y="385.122">P_d=350</text>
</g>
<circle clip-path="url(#clip280)" cx="1398.68" cy="422.209" r="24.5558" fill="#d62628" fill-rule="evenodd" fill-opacity="1" stroke="#000000" stroke-opacity="1" stroke-width="3.15284"/>
<g clip-path="url(#clip280)">
<text style="fill:#000000; fill-opacity:1; font-family:Arial,Helvetica Neue,Helvetica,sans-serif; font-size:53px; text-anchor:start;" transform="rotate(0, 1476.45, 441.709)" x="1476.45" y="441.709">P_d=500</text>
</g>
</svg>
