<?xml version="1.0" encoding="utf-8"?>
<svg xmlns="http://www.w3.org/2000/svg" xmlns:xlink="http://www.w3.org/1999/xlink" width="720" height="440" viewBox="0 0 2880 1760">
<defs>
  <clipPath id="clip370">
    <rect x="0" y="0" width="2880" height="1760"/>
  </clipPath>
</defs>
<path clip-path="url(#clip370)" d="M0 1760 L2880 1760 L2880 2.27374e-13 L0 2.27374e-13  Z" fill="#ffffff" fill-rule="evenodd" fill-opacity="1"/>
<defs>
  <clipPath id="clip371">
    <rect x="206" y="109" width="2628" height="1483"/>
  </clipPath>
</defs>
<path clip-path="url(#clip370)" d="M416.567 1590.66 L2832.76 1590.66 L2832.76 109.1 L416.567 109.1  Z" fill="#ffffff" fill-rule="evenodd" fill-opacity="1"/>
<defs>
  <clipPath id="clip372">
    <rect x="416" y="109" width="2417" height="1483"/>
  </clipPath>
</defs>
<polyline clip-path="url(#clip372)" style="stroke:#000000; stroke-linecap:round; stroke-linejoin:round; stroke-width:2; stroke-opacity:0.25; fill:none" points="484.949,1590.66 484.949,109.1 "/>
<polyline clip-path="url(#clip372)" style="stroke:#000000; stroke-linecap:round; stroke-linejoin:round; stroke-width:2; stroke-opacity:0.25; fill:none" points="940.834,1590.66 940.834,109.1 "/>
<polyline clip-path="url(#clip372)" style="stroke:#000000; stroke-linecap:round; stroke-linejoin:round; stroke-width:2; stroke-opacity:0.25; fill:none" points="1396.72,1590.66 1396.72,109.1 "/>
<polyline clip-path="url(#clip372)" style="stroke:#000000; stroke-linecap:round; stroke-linejoin:round; stroke-width:2; stroke-opacity:0.25; fill:none" points="1852.6,1590.66 1852.6,109.1 "/>
<polyline clip-path="url(#clip372)" style="stroke:#000000; stroke-linecap:round; stroke-linejoin:round; stroke-width:2; stroke-opacity:0.25; fill:none" points="2308.49,1590.66 2308.49,109.1 "/>
<polyline clip-path="url(#clip372)" style="stroke:#000000; stroke-linecap:round; stroke-linejoin:round; stroke-width:2; stroke-opacity:0.25; fill:none" points="2764.37,1590.66 2764.37,109.1 "/>
<polyline clip-path="url(#clip372)" style="stroke:#000000; stroke-linecap:round; stroke-linejoin:round; stroke-width:2; stroke-opacity:0.25; fill:none" points="484.949,1590.66 484.949,109.1 "/>
<polyline clip-path="url(#clip372)" style="stroke:#000000; stroke-linecap:round; stroke-linejoin:round; stroke-width:2; stroke-opacity:0.25; fill:none" points="940.834,1590.66 940.834,109.1 "/>
<polyline clip-path="url(#clip372)" style="stroke:#000000; stroke-linecap:round; stroke-linejoin:round; stroke-width:2; stroke-opacity:0.25; fill:none" points="1396.72,1590.66 1396.72,109.1 "/>
<polyline clip-path="url(#clip372)" style="stroke:#000000; stroke-linecap:round; stroke-linejoin:round; stroke-width:2; stroke-opacity:0.25; fill:none" points="1852.6,1590.66 1852.6,109.1 "/>
<polyline clip-path="url(#clip372)" style="stroke:#000000; stroke-linecap:round; stroke-linejoin:round; stroke-width:2; stroke-opacity:0.25; fill:none" points="2308.49,1590.66 2308.49,109.1 "/>
<polyline clip-path="url(#clip372)" style="stroke:#000000; stroke-linecap:round; stroke-linejoin:round; stroke-width:2; stroke-opacity:0.25; fill:none" points="2764.37,1590.66 2764.37,109.1 "/>
<polyline clip-path="url(#clip372)" style="stroke:#000000; stroke-linecap:round; stroke-linejoin:round; stroke-width:2; stroke-opacity:0.25; fill:none" points="416.567,1548.72 2832.76,1548.72 "/>
<polyline clip-path="url(#clip372)" style="stroke:#000000; stroke-linecap:round; stroke-linejoin:round; stroke-width:2; stroke-opacity:0.25; fill:none" points="416.567,1234.24 2832.76,1234.24 "/>
<polyline clip-path="url(#clip372)" style="stroke:#000000; stroke-linecap:round; stroke-linejoin:round; stroke-width:2; stroke-opacity:0.25; fill:none" points="416.567,919.762 2832.76,919.762 "/>
<polyline clip-path="url(#clip372)" style="stroke:#000000; stroke-linecap:round; stroke-linejoin:round; stroke-width:2; stroke-opacity:0.25; fill:none" points="416.567,605.281 2832.76,605.281 "/>
<polyline clip-path="url(#clip372)" style="stroke:#000000; stroke-linecap:round; stroke-linejoin:round; stroke-width:2; stroke-opacity:0.25; fill:none" points="416.567,290.8 2832.76,290.8 "/>
<polyline clip-path="url(#clip372)" style="stroke:#000000; stroke-linecap:round; stroke-linejoin:round; stroke-width:2; stroke-opacity:0.25; fill:none" points="416.567,1548.72 2832.76,1548.72 "/>
<polyline clip-path="url(#clip372)" style="stroke:#000000; stroke-linecap:round; stroke-linejoin:round; stroke-width:2; stroke-opacity:0.25; fill:none" points="416.567,1234.24 2832.76,1234.24 "/>
<polyline clip-path="url(#clip372)" style="stroke:#000000; stroke-linecap:round; stroke-linejoin:round; stroke-width:2; stroke-opacity:0.25; fill:none" points="416.567,919.762 2832.76,919.762 "/>
<polyline clip-path="url(#clip372)" style="stroke:#000000; stroke-linecap:round; stroke-linejoin:round; stroke-width:2; stroke-opacity:0.25; fill:none" points="416.567,605.281 2832.76,605.281 "/>
<polyline clip-path="url(#clip372)" style="stroke:#000000; stroke-linecap:round; stroke-linejoin:round; stroke-width:2; stroke-opacity:0.25; fill:none" points="416.567,290.8 2832.76,290.8 "/>
<polyline clip-path="url(#clip370)" style="stroke:#000000; stroke-linecap:round; stroke-linejoin:round; stroke-width:4; stroke-opacity:1; fill:none" points="416.567,1590.66 2832.76,1590.66 "/>
<polyline clip-path="url(#clip370)" style="stroke:#000000; stroke-linecap:round; stroke-linejoin:round; stroke-width:4; stroke-opacity:1; fill:none" points="416.567,109.1 2832.76,109.1 "/>
<polyline clip-path="url(#clip370)" style="stroke:#000000; stroke-linecap:round; stroke-linejoin:round; stroke-width:4; stroke-opacity:1; fill:none" points="484.949,1590.66 484.949,1571.76 "/>
<polyline clip-path="url(#clip370)" style="stroke:#000000; stroke-linecap:round; stroke-linejoin:round; stroke-width:4; stroke-opacity:1; fill:none" points="940.834,1590.66 940.834,1571.76 "/>
<polyline clip-path="url(#clip370)" style="stroke:#000000; stroke-linecap:round; stroke-linejoin:round; stroke-width:4; stroke-opacity:1; fill:none" points="1396.72,1590.66 1396.72,1571.76 "/>
<polyline clip-path="url(#clip370)" style="stroke:#000000; stroke-linecap:round; stroke-linejoin:round; stroke-width:4; stroke-opacity:1; fill:none" points="1852.6,1590.66 1852.6,1571.76 "/>
<polyline clip-path="url(#clip370)" style="stroke:#000000; stroke-linecap:round; stroke-linejoin:round; stroke-width:4; stroke-opacity:1; fill:none" points="2308.49,1590.66 2308.49,1571.76 "/>
<polyline clip-path="url(#clip370)" style="stroke:#000000; stroke-linecap:round; stroke-linejoin:round; stroke-width:4; stroke-opacity:1; fill:none" points="2764.37,1590.66 2764.37,1571.76 "/>
<polyline clip-path="url(#clip370)" style="stroke:#000000; stroke-linecap:round; stroke-linejoin:round; stroke-width:4; stroke-opacity:1; fill:none" points="484.949,109.1 484.949,127.998 "/>
<polyline clip-path="url(#clip370)" style="stroke:#000000; stroke-linecap:round; stroke-linejoin:round; stroke-width:4; stroke-opacity:1; fill:none" points="940.834,109.1 940.834,127.998 "/>
<polyline clip-path="url(#clip370)" style="stroke:#000000; stroke-linecap:round; stroke-linejoin:round; stroke-width:4; stroke-opacity:1; fill:none" points="1396.72,109.1 1396.72,127.998 "/>
<polyline clip-path="url(#clip370)" style="stroke:#000000; stroke-linecap:round; stroke-linejoin:round; stroke-width:4; stroke-opacity:1; fill:none" points="1852.6,109.1 1852.6,127.998 "/>
<polyline clip-path="url(#clip370)" style="stroke:#000000; stroke-linecap:round; stroke-linejoin:round; stroke-width:4; stroke-opacity:1; fill:none" points="2308.49,109.1 2308.49,127.998 "/>
<polyline clip-path="url(#clip370)" style="stroke:#000000; stroke-linecap:round; stroke-linejoin:round; stroke-width:4; stroke-opacity:1; fill:none" points="2764.37,109.1 2764.37,127.998 "/>
<g clip-path="url(#clip370)">
<text style="fill:#000000; fill-opacity:1; font-family:Arial,Helvetica Neue,Helvetica,sans-serif; font-size:53px; text-anchor:middle;" transform="rotate(0, 484.949, 1661.49)" x="484.949" y="1661.49">100</text>
</g>
<g clip-path="url(#clip370)">
<text style="fill:#000000; fill-opacity:1; font-family:Arial,Helvetica Neue,Helvetica,sans-serif; font-size:53px; text-anchor:middle;" transform="rotate(0, 940.834, 1661.49)" x="940.834" y="1661.49">200</text>
</g>
<g clip-path="url(#clip370)">
<text style="fill:#000000; fill-opacity:1; font-family:Arial,Helvetica Neue,Helvetica,sans-serif; font-size:53px; text-anchor:middle;" transform="rotate(0, 1396.72, 1661.49)" x="1396.72" y="1661.49">300</text>
</g>
<g clip-path="url(#clip370)">
<text style="fill:#000000; fill-opacity:1; font-family:Arial,Helvetica Neue,Helvetica,sans-serif; font-size:53px; text-anchor:middle;" transform="rotate(0, 1852.6, 1661.49)" x="1852.6" y="1661.49">400</text>
</g>
<g clip-path="url(#clip370)">
<text style="fill:#000000; fill-opacity:1; font-family:Arial,Helvetica Neue,Helvetica,sans-serif; font-size:53px; text-anchor:middle;" transform="rotate(0, 2308.49, 1661.49)" x="2308.49" y="1661.49">500</text>
</g>
<g clip-path="url(#clip370)">
<text style="fill:#000000; fill-opacity:1; font-family:Arial,Helvetica Neue,Helvetica,sans-serif; font-size:53px; text-anchor:middle;" transform="rotate(0, 2764.37, 1661.49)" x="2764.37" y="1661.49">600</text>
</g>
<g clip-path="url(#clip370)">
<text style="fill:#000000; fill-opacity:1; font-family:Arial,Helvetica Neue,Helvetica,sans-serif; font-size:59px; text-anchor:middle;" transform="rotate(0, 1624.66, 1744.72)" x="1624.66" y="1744.72">Active Load P_d [MW]</text>
</g>
<polyline clip-path="url(#clip370)" style="stroke:#000000; stroke-linecap:round; stroke-linejoin:round; stroke-width:4; stroke-opacity:1; fill:none" points="416.567,1590.66 416.567,109.1 "/>
<polyline clip-path="url(#clip370)" style="stroke:#000000; stroke-linecap:round; stroke-linejoin:round; stroke-width:4; stroke-opacity:1; fill:none" points="2832.76,1590.66 2832.76,109.1 "/>
<polyline clip-path="url(#clip370)" style="stroke:#000000; stroke-linecap:round; stroke-linejoin:round; stroke-width:4; stroke-opacity:1; fill:none" points="416.567,1548.72 435.464,1548.72 "/>
<polyline clip-path="url(#clip370)" style="stroke:#000000; stroke-linecap:round; stroke-linejoin:round; stroke-width:4; stroke-opacity:1; fill:none" points="416.567,1234.24 435.464,1234.24 "/>
<polyline clip-path="url(#clip370)" style="stroke:#000000; stroke-linecap:round; stroke-linejoin:round; stroke-width:4; stroke-opacity:1; fill:none" points="416.567,919.762 435.464,919.762 "/>
<polyline clip-path="url(#clip370)" style="stroke:#000000; stroke-linecap:round; stroke-linejoin:round; stroke-width:4; stroke-opacity:1; fill:none" points="416.567,605.281 435.464,605.281 "/>
<polyline clip-path="url(#clip370)" style="stroke:#000000; stroke-linecap:round; stroke-linejoin:round; stroke-width:4; stroke-opacity:1; fill:none" points="416.567,290.8 435.464,290.8 "/>
<polyline clip-path="url(#clip370)" style="stroke:#000000; stroke-linecap:round; stroke-linejoin:round; stroke-width:4; stroke-opacity:1; fill:none" points="2832.76,1548.72 2813.86,1548.72 "/>
<polyline clip-path="url(#clip370)" style="stroke:#000000; stroke-linecap:round; stroke-linejoin:round; stroke-width:4; stroke-opacity:1; fill:none" points="2832.76,1234.24 2813.86,1234.24 "/>
<polyline clip-path="url(#clip370)" style="stroke:#000000; stroke-linecap:round; stroke-linejoin:round; stroke-width:4; stroke-opacity:1; fill:none" points="2832.76,919.762 2813.86,919.762 "/>
<polyline clip-path="url(#clip370)" style="stroke:#000000; stroke-linecap:round; stroke-linejoin:round; stroke-width:4; stroke-opacity:1; fill:none" points="2832.76,605.281 2813.86,605.281 "/>
<polyline clip-path="url(#clip370)" style="stroke:#000000; stroke-linecap:round; stroke-linejoin:round; stroke-width:4; stroke-opacity:1; fill:none" points="2832.76,290.8 2813.86,290.8 "/>
<g clip-path="url(#clip370)">
<text style="fill:#000000; fill-opacity:1; font-family:Arial,Helvetica Neue,Helvetica,sans-serif; font-size:53px; text-anchor:middle;" transform="rotate(0, 358.313, 1568.22)" x="358.313" y="1568.22">0</text>
</g>
<g clip-path="url(#clip370)">
<text style="fill:#000000; fill-opacity:1; font-family:Arial,Helvetica Neue,Helvetica,sans-serif; font-size:53px; text-anchor:start;" transform="rotate(0, 102.764, 1260.94)" x="102.764" y="1260.94">2.50×10</text>
</g>
<g clip-path="url(#clip370)">
<text style="fill:#000000; fill-opacity:1; font-family:Arial,Helvetica Neue,Helvetica,sans-serif; font-size:44px; text-anchor:start;" transform="rotate(0, 299.979, 1230.1)" x="299.979" y="1230.1">−12</text>
</g>
<g clip-path="url(#clip370)">
<text style="fill:#000000; fill-opacity:1; font-family:Arial,Helvetica Neue,Helvetica,sans-serif; font-size:53px; text-anchor:start;" transform="rotate(0, 102.764, 946.456)" x="102.764" y="946.456">5.00×10</text>
</g>
<g clip-path="url(#clip370)">
<text style="fill:#000000; fill-opacity:1; font-family:Arial,Helvetica Neue,Helvetica,sans-serif; font-size:44px; text-anchor:start;" transform="rotate(0, 299.979, 915.619)" x="299.979" y="915.619">−12</text>
</g>
<g clip-path="url(#clip370)">
<text style="fill:#000000; fill-opacity:1; font-family:Arial,Helvetica Neue,Helvetica,sans-serif; font-size:53px; text-anchor:start;" transform="rotate(0, 102.764, 631.975)" x="102.764" y="631.975">7.50×10</text>
</g>
<g clip-path="url(#clip370)">
<text style="fill:#000000; fill-opacity:1; font-family:Arial,Helvetica Neue,Helvetica,sans-serif; font-size:44px; text-anchor:start;" transform="rotate(0, 299.979, 601.138)" x="299.979" y="601.138">−12</text>
</g>
<g clip-path="url(#clip370)">
<text style="fill:#000000; fill-opacity:1; font-family:Arial,Helvetica Neue,Helvetica,sans-serif; font-size:53px; text-anchor:start;" transform="rotate(0, 102.764, 317.494)" x="102.764" y="317.494">1.00×10</text>
</g>
<g clip-path="url(#clip370)">
<text style="fill:#000000; fill-opacity:1; font-family:Arial,Helvetica Neue,Helvetica,sans-serif; font-size:44px; text-anchor:start;" transform="rotate(0, 299.979, 286.657)" x="299.979" y="286.657">−11</text>
</g>
<g clip-path="url(#clip370)">
<text style="fill:#000000; fill-opacity:1; font-family:Arial,Helvetica Neue,Helvetica,sans-serif; font-size:59px; text-anchor:middle;" transform="rotate(-90, 48.2889, 849.878)" x="48.2889" y="849.878">(V − V_ref)²  [pu²]</text>
</g>
<g clip-path="url(#clip370)">
<text style="fill:#000000; fill-opacity:1; font-family:Arial,Helvetica Neue,Helvetica,sans-serif; font-size:71px; text-anchor:middle;" transform="rotate(0, 1624.66, 62.4)" x="1624.66" y="62.4">Voltage Deviation Penalty vs Load</text>
</g>
<path clip-path="url(#clip372)" d="M484.949 151.031 L507.744 280.975 L530.538 393.606 L553.332 491.867 L576.126 578.104 L598.921 654.201 L621.715 721.687 L644.509 781.815 L667.303 835.616 L690.098 883.948 L712.892 927.527 L735.686 966.958 L758.48 1002.75 L781.275 1035.34 L804.069 1065.09 L826.863 1092.33 L849.657 1117.34 L872.451 1140.34 L895.246 1161.55 L918.04 1181.15 L940.834 1199.3 L963.628 1216.14 L986.423 1231.79 L1009.22 1246.36 L1032.01 1259.94 L1054.81 1272.64 L1077.6 1284.51 L1100.39 1295.63 L1123.19 1306.07 L1145.98 1315.87 L1168.78 1325.09 L1191.57 1333.78 L1214.37 1341.97 L1237.16 1349.69 L1259.95 1357 L1282.75 1363.91 L1305.54 1370.45 L1328.34 1376.65 L1351.13 1382.53 L1373.92 1388.12 L1396.72 1393.43 L1419.51 1398.48 L1442.31 1403.28 L1465.1 1407.86 L1487.9 1412.23 L1510.69 1416.4 L1533.48 1420.38 L1556.28 1424.18 L1579.07 1427.82 L1601.87 1431.3 L1624.66 1434.63 L1647.46 1437.82 L1670.25 1440.88 L1693.04 1443.81 L1715.84 1446.63 L1738.63 1449.33 L1761.43 1451.93 L1784.22 1454.43 L1807.02 1456.83 L1829.81 1459.14 L1852.6 1461.37 L1875.4 1463.51 L1898.19 1465.58 L1920.99 1467.57 L1943.78 1469.49 L1966.57 1471.34 L1989.37 1473.13 L2012.16 1474.86 L2034.96 1476.53 L2057.75 1478.14 L2080.55 1479.7 L2103.34 1481.21 L2126.13 1482.67 L2148.93 1484.08 L2171.72 1485.45 L2194.52 1486.78 L2217.31 1488.06 L2240.11 1489.31 L2262.9 1490.51 L2285.69 1491.68 L2308.49 1492.82 L2331.28 1493.92 L2354.08 1494.99 L2376.87 1496.03 L2399.67 1497.03 L2422.46 1498.01 L2445.25 1498.97 L2468.05 1499.89 L2490.84 1500.79 L2513.64 1501.67 L2536.43 1502.52 L2559.23 1503.35 L2582.02 1504.16 L2604.81 1504.94 L2627.61 1505.71 L2650.4 1506.45 L2673.2 1507.18 L2695.99 1507.88 L2718.78 1508.57 L2741.58 1509.24 L2764.37 1509.9 L2764.37 1548.72 L2741.58 1548.72 L2718.78 1548.72 L2695.99 1548.72 L2673.2 1548.72 L2650.4 1548.72 L2627.61 1548.72 L2604.81 1548.72 L2582.02 1548.72 L2559.23 1548.72 L2536.43 1548.72 L2513.64 1548.72 L2490.84 1548.72 L2468.05 1548.72 L2445.25 1548.72 L2422.46 1548.72 L2399.67 1548.72 L2376.87 1548.72 L2354.08 1548.72 L2331.28 1548.72 L2308.49 1548.72 L2285.69 1548.72 L2262.9 1548.72 L2240.11 1548.72 L2217.31 1548.72 L2194.52 1548.72 L2171.72 1548.72 L2148.93 1548.72 L2126.13 1548.72 L2103.34 1548.72 L2080.55 1548.72 L2057.75 1548.72 L2034.96 1548.72 L2012.16 1548.72 L1989.37 1548.72 L1966.57 1548.72 L1943.78 1548.72 L1920.99 1548.72 L1898.19 1548.72 L1875.4 1548.72 L1852.6 1548.72 L1829.81 1548.72 L1807.02 1548.72 L1784.22 1548.72 L1761.43 1548.72 L1738.63 1548.72 L1715.84 1548.72 L1693.04 1548.72 L1670.25 1548.72 L1647.46 1548.72 L1624.66 1548.72 L1601.87 1548.72 L1579.07 1548.72 L1556.28 1548.72 L1533.48 1548.72 L1510.69 1548.72 L1487.9 1548.72 L1465.1 1548.72 L1442.31 1548.72 L1419.51 1548.72 L1396.72 1548.72 L1373.92 1548.72 L1351.13 1548.72 L1328.34 1548.72 L1305.54 1548.72 L1282.75 1548.72 L1259.95 1548.72 L1237.16 1548.72 L1214.37 1548.72 L1191.57 1548.72 L1168.78 1548.72 L1145.98 1548.72 L1123.19 1548.72 L1100.39 1548.72 L1077.6 1548.72 L1054.81 1548.72 L1032.01 1548.72 L1009.22 1548.72 L986.423 1548.72 L963.628 1548.72 L940.834 1548.72 L918.04 1548.72 L895.246 1548.72 L872.451 1548.72 L849.657 1548.72 L826.863 1548.72 L804.069 1548.72 L781.275 1548.72 L758.48 1548.72 L735.686 1548.72 L712.892 1548.72 L690.098 1548.72 L667.303 1548.72 L644.509 1548.72 L621.715 1548.72 L598.921 1548.72 L576.126 1548.72 L553.332 1548.72 L530.538 1548.72 L507.744 1548.72 L484.949 1548.72  Z" fill="#d62628" fill-rule="evenodd" fill-opacity="0.12"/>
<polyline clip-path="url(#clip372)" style="stroke:#d62628; stroke-linecap:round; stroke-linejoin:round; stroke-width:8.8; stroke-opacity:1; fill:none" points="484.949,151.031 507.744,280.975 530.538,393.606 553.332,491.867 576.126,578.104 598.921,654.201 621.715,721.687 644.509,781.815 667.303,835.616 690.098,883.948 712.892,927.527 735.686,966.958 758.48,1002.75 781.275,1035.34 804.069,1065.09 826.863,1092.33 849.657,1117.34 872.451,1140.34 895.246,1161.55 918.04,1181.15 940.834,1199.3 963.628,1216.14 986.423,1231.79 1009.22,1246.36 1032.01,1259.94 1054.81,1272.64 1077.6,1284.51 1100.39,1295.63 1123.19,1306.07 1145.98,1315.87 1168.78,1325.09 1191.57,1333.78 1214.37,1341.97 1237.16,1349.69 1259.95,1357 1282.75,1363.91 1305.54,1370.45 1328.34,1376.65 1351.13,1382.53 1373.92,1388.12 1396.72,1393.43 1419.51,1398.48 1442.31,1403.28 1465.1,1407.86 1487.9,1412.23 1510.69,1416.4 1533.48,1420.38 1556.28,1424.18 1579.07,1427.82 1601.87,1431.3 1624.66,1434.63 1647.46,1437.82 1670.25,1440.88 1693.04,1443.81 1715.84,1446.63 1738.63,1449.33 1761.43,1451.93 1784.22,1454.43 1807.02,1456.83 1829.81,1459.14 1852.6,1461.37 1875.4,1463.51 1898.19,1465.58 1920.99,1467.57 1943.78,1469.49 1966.57,1471.34 1989.37,1473.13 2012.16,1474.86 2034.96,1476.53 2057.75,1478.14 2080.55,1479.7 2103.34,1481.21 2126.13,1482.67 2148.93,1484.08 2171.72,1485.45 2194.52,1486.78 2217.31,1488.06 2240.11,1489.31 2262.9,1490.51 2285.69,1491.68 2308.49,1492.82 2331.28,1493.92 2354.08,1494.99 2376.87,1496.03 2399.67,1497.03 2422.46,1498.01 2445.25,1498.97 2468.05,1499.89 2490.84,1500.79 2513.64,1501.67 2536.43,1502.52 2559.23,1503.35 2582.02,1504.16 2604.81,1504.94 2627.61,1505.71 2650.4,1506.45 2673.2,1507.18 2695.99,1507.88 2718.78,1508.57 2741.58,1509.24 2764.37,1509.9 "/>
<path clip-path="url(#clip370)" d="M2359.19 271.66 L2752.22 271.66 L2752.22 158.485 L2359.19 158.485  Z" fill="#ffffff" fill-rule="evenodd" fill-opacity="1"/>
<polyline clip-path="url(#clip370)" style="stroke:#000000; stroke-linecap:round; stroke-linejoin:round; stroke-width:4; stroke-opacity:1; fill:none" points="2359.19,271.66 2752.22,271.66 2752.22,158.485 2359.19,158.485 2359.19,271.66 "/>
<path clip-path="url(#clip370)" d="M2386.04 237.707 L2547.12 237.707 L2547.12 192.438 L2386.04 192.438 L2386.04 237.707  Z" fill="#d62628" fill-rule="evenodd" fill-opacity="0.12"/>
<polyline clip-path="url(#clip370)" style="stroke:#d62628; stroke-linecap:round; stroke-linejoin:round; stroke-width:9.9; stroke-opacity:1; fill:none" points="2386.04,192.438 2547.12,192.438 "/>
<g clip-path="url(#clip370)">
<text style="fill:#000000; fill-opacity:1; font-family:Arial,Helvetica Neue,Helvetica,sans-serif; font-size:53px; text-anchor:start;" transform="rotate(0, 2573.97, 234.573)" x="2573.97" y="234.573">(V−1)²</text>
</g>
</svg>
