<?xml version="1.0" encoding="utf-8"?>
<svg xmlns="http://www.w3.org/2000/svg" xmlns:xlink="http://www.w3.org/1999/xlink" width="720" height="440" viewBox="0 0 2880 1760">
<defs>
  <clipPath id="clip250">
    <rect x="0" y="0" width="2880" height="1760"/>
  </clipPath>
</defs>
<path clip-path="url(#clip250)" d="M0 1760 L2880 1760 L2880 2.27374e-13 L0 2.27374e-13  Z" fill="#ffffff" fill-rule="evenodd" fill-opacity="1"/>
<defs>
  <clipPath id="clip251">
    <rect x="206" y="109" width="2628" height="1483"/>
  </clipPath>
</defs>
<path clip-path="url(#clip250)" d="M251.34 1590.66 L2832.76 1590.66 L2832.76 109.1 L251.34 109.1  Z" fill="#ffffff" fill-rule="evenodd" fill-opacity="1"/>
<defs>
  <clipPath id="clip252">
    <rect x="251" y="109" width="2582" height="1483"/>
  </clipPath>
</defs>
<polyline clip-path="url(#clip252)" style="stroke:#000000; stroke-linecap:round; stroke-linejoin:round; stroke-width:2; stroke-opacity:0.25; fill:none" points="324.399,1590.66 324.399,109.1 "/>
<polyline clip-path="url(#clip252)" style="stroke:#000000; stroke-linecap:round; stroke-linejoin:round; stroke-width:2; stroke-opacity:0.25; fill:none" points="811.459,1590.66 811.459,109.1 "/>
<polyline clip-path="url(#clip252)" style="stroke:#000000; stroke-linecap:round; stroke-linejoin:round; stroke-width:2; stroke-opacity:0.25; fill:none" points="1298.52,1590.66 1298.52,109.1 "/>
<polyline clip-path="url(#clip252)" style="stroke:#000000; stroke-linecap:round; stroke-linejoin:round; stroke-width:2; stroke-opacity:0.25; fill:none" points="1785.58,1590.66 1785.58,109.1 "/>
<polyline clip-path="url(#clip252)" style="stroke:#000000; stroke-linecap:round; stroke-linejoin:round; stroke-width:2; stroke-opacity:0.25; fill:none" points="2272.64,1590.66 2272.64,109.1 "/>
<polyline clip-path="url(#clip252)" style="stroke:#000000; stroke-linecap:round; stroke-linejoin:round; stroke-width:2; stroke-opacity:0.25; fill:none" points="2759.7,1590.66 2759.7,109.1 "/>
<polyline clip-path="url(#clip252)" style="stroke:#000000; stroke-linecap:round; stroke-linejoin:round; stroke-width:2; stroke-opacity:0.25; fill:none" points="324.399,1590.66 324.399,109.1 "/>
<polyline clip-path="url(#clip252)" style="stroke:#000000; stroke-linecap:round; stroke-linejoin:round; stroke-width:2; stroke-opacity:0.25; fill:none" points="811.459,1590.66 811.459,109.1 "/>
<polyline clip-path="url(#clip252)" style="stroke:#000000; stroke-linecap:round; stroke-linejoin:round; stroke-width:2; stroke-opacity:0.25; fill:none" points="1298.52,1590.66 1298.52,109.1 "/>
<polyline clip-path="url(#clip252)" style="stroke:#000000; stroke-linecap:round; stroke-linejoin:round; stroke-width:2; stroke-opacity:0.25; fill:none" points="1785.58,1590.66 1785.58,109.1 "/>
<polyline clip-path="url(#clip252)" style="stroke:#000000; stroke-linecap:round; stroke-linejoin:round; stroke-width:2; stroke-opacity:0.25; fill:none" points="2272.64,1590.66 2272.64,109.1 "/>
<polyline clip-path="url(#clip252)" style="stroke:#000000; stroke-linecap:round; stroke-linejoin:round; stroke-width:2; stroke-opacity:0.25; fill:none" points="2759.7,1590.66 2759.7,109.1 "/>
<polyline clip-path="url(#clip252)" style="stroke:#000000; stroke-linecap:round; stroke-linejoin:round; stroke-width:2; stroke-opacity:0.25; fill:none" points="251.34,1408.96 2832.76,1408.96 "/>
<polyline clip-path="url(#clip252)" style="stroke:#000000; stroke-linecap:round; stroke-linejoin:round; stroke-width:2; stroke-opacity:0.25; fill:none" points="251.34,1129.42 2832.76,1129.42 "/>
<polyline clip-path="url(#clip252)" style="stroke:#000000; stroke-linecap:round; stroke-linejoin:round; stroke-width:2; stroke-opacity:0.25; fill:none" points="251.34,849.878 2832.76,849.878 "/>
<polyline clip-path="url(#clip252)" style="stroke:#000000; stroke-linecap:round; stroke-linejoin:round; stroke-width:2; stroke-opacity:0.25; fill:none" points="251.34,570.339 2832.76,570.339 "/>
<polyline clip-path="url(#clip252)" style="stroke:#000000; stroke-linecap:round; stroke-linejoin:round; stroke-width:2; stroke-opacity:0.25; fill:none" points="251.34,290.8 2832.76,290.8 "/>
<polyline clip-path="url(#clip252)" style="stroke:#000000; stroke-linecap:round; stroke-linejoin:round; stroke-width:2; stroke-opacity:0.25; fill:none" points="251.34,1408.96 2832.76,1408.96 "/>
<polyline clip-path="url(#clip252)" style="stroke:#000000; stroke-linecap:round; stroke-linejoin:round; stroke-width:2; stroke-opacity:0.25; fill:none" points="251.34,1129.42 2832.76,1129.42 "/>
<polyline clip-path="url(#clip252)" style="stroke:#000000; stroke-linecap:round; stroke-linejoin:round; stroke-width:2; stroke-opacity:0.25; fill:none" points="251.34,849.878 2832.76,849.878 "/>
<polyline clip-path="url(#clip252)" style="stroke:#000000; stroke-linecap:round; stroke-linejoin:round; stroke-width:2; stroke-opacity:0.25; fill:none" points="251.34,570.339 2832.76,570.339 "/>
<polyline clip-path="url(#clip252)" style="stroke:#000000; stroke-linecap:round; stroke-linejoin:round; stroke-width:2; stroke-opacity:0.25; fill:none" points="251.34,290.8 2832.76,290.8 "/>
<polyline clip-path="url(#clip250)" style="stroke:#000000; stroke-linecap:round; stroke-linejoin:round; stroke-width:4; stroke-opacity:1; fill:none" points="251.34,1590.66 2832.76,1590.66 "/>
<polyline clip-path="url(#clip250)" style="stroke:#000000; stroke-linecap:round; stroke-linejoin:round; stroke-width:4; stroke-opacity:1; fill:none" points="251.34,109.1 2832.76,109.1 "/>
<polyline clip-path="url(#clip250)" style="stroke:#000000; stroke-linecap:round; stroke-linejoin:round; stroke-width:4; stroke-opacity:1; fill:none" points="324.399,1590.66 324.399,1571.76 "/>
<polyline clip-path="url(#clip250)" style="stroke:#000000; stroke-linecap:round; stroke-linejoin:round; stroke-width:4; stroke-opacity:1; fill:none" points="811.459,1590.66 811.459,1571.76 "/>
<polyline clip-path="url(#clip250)" style="stroke:#000000; stroke-linecap:round; stroke-linejoin:round; stroke-width:4; stroke-opacity:1; fill:none" points="1298.52,1590.66 1298.52,1571.76 "/>
<polyline clip-path="url(#clip250)" style="stroke:#000000; stroke-linecap:round; stroke-linejoin:round; stroke-width:4; stroke-opacity:1; fill:none" points="1785.58,1590.66 1785.58,1571.76 "/>
<polyline clip-path="url(#clip250)" style="stroke:#000000; stroke-linecap:round; stroke-linejoin:round; stroke-width:4; stroke-opacity:1; fill:none" points="2272.64,1590.66 2272.64,1571.76 "/>
<polyline clip-path="url(#clip250)" style="stroke:#000000; stroke-linecap:round; stroke-linejoin:round; stroke-width:4; stroke-opacity:1; fill:none" points="2759.7,1590.66 2759.7,1571.76 "/>
<polyline clip-path="url(#clip250)" style="stroke:#000000; stroke-linecap:round; stroke-linejoin:round; stroke-width:4; stroke-opacity:1; fill:none" points="324.399,109.1 324.399,127.998 "/>
<polyline clip-path="url(#clip250)" style="stroke:#000000; stroke-linecap:round; stroke-linejoin:round; stroke-width:4; stroke-opacity:1; fill:none" points="811.459,109.1 811.459,127.998 "/>
<polyline clip-path="url(#clip250)" style="stroke:#000000; stroke-linecap:round; stroke-linejoin:round; stroke-width:4; stroke-opacity:1; fill:none" points="1298.52,109.1 1298.52,127.998 "/>
<polyline clip-path="url(#clip250)" style="stroke:#000000; stroke-linecap:round; stroke-linejoin:round; stroke-width:4; stroke-opacity:1; fill:none" points="1785.58,109.1 1785.58,127.998 "/>
<polyline clip-path="url(#clip250)" style="stroke:#000000; stroke-linecap:round; stroke-linejoin:round; stroke-width:4; stroke-opacity:1; fill:none" points="2272.64,109.1 2272.64,127.998 "/>
<polyline clip-path="url(#clip250)" style="stroke:#000000; stroke-linecap:round; stroke-linejoin:round; stroke-width:4; stroke-opacity:1; fill:none" points="2759.7,109.1 2759.7,127.998 "/>
<g clip-path="url(#clip250)">
<text style="fill:#000000; fill-opacity:1; font-family:Arial,Helvetica Neue,Helvetica,sans-serif; font-size:53px; text-anchor:middle;" transform="rotate(0, 324.399, 1661.49)" x="324.399" y="1661.49">100</text>
</g>
<g clip-path="url(#clip250)">
<text style="fill:#000000; fill-opacity:1; font-family:Arial,Helvetica Neue,Helvetica,sans-serif; font-size:53px; text-anchor:middle;" transform="rotate(0, 811.459, 1661.49)" x="811.459" y="1661.49">200</text>
</g>
<g clip-path="url(#clip250)">
<text style="fill:#000000; fill-opacity:1; font-family:Arial,Helvetica Neue,Helvetica,sans-serif; font-size:53px; text-anchor:middle;" transform="rotate(0, 1298.52, 1661.49)" x="1298.52" y="1661.49">300</text>
</g>
<g clip-path="url(#clip250)">
<text style="fill:#000000; fill-opacity:1; font-family:Arial,Helvetica Neue,Helvetica,sans-serif; font-size:53px; text-anchor:middle;" transform="rotate(0, 1785.58, 1661.49)" x="1785.58" y="1661.49">400</text>
</g>
<g clip-path="url(#clip250)">
<text style="fill:#000000; fill-opacity:1; font-family:Arial,Helvetica Neue,Helvetica,sans-serif; font-size:53px; text-anchor:middle;" transform="rotate(0, 2272.64, 1661.49)" x="2272.64" y="1661.49">500</text>
</g>
<g clip-path="url(#clip250)">
<text style="fill:#000000; fill-opacity:1; font-family:Arial,Helvetica Neue,Helvetica,sans-serif; font-size:53px; text-anchor:middle;" transform="rotate(0, 2759.7, 1661.49)" x="2759.7" y="1661.49">600</text>
</g>
<g clip-path="url(#clip250)">
<text style="fill:#000000; fill-opacity:1; font-family:Arial,Helvetica Neue,Helvetica,sans-serif; font-size:59px; text-anchor:middle;" transform="rotate(0, 1542.05, 1744.72)" x="1542.05" y="1744.72">Active Load P_d [MW]</text>
</g>
<polyline clip-path="url(#clip250)" style="stroke:#000000; stroke-linecap:round; stroke-linejoin:round; stroke-width:4; stroke-opacity:1; fill:none" points="251.34,1590.66 251.34,109.1 "/>
<polyline clip-path="url(#clip250)" style="stroke:#000000; stroke-linecap:round; stroke-linejoin:round; stroke-width:4; stroke-opacity:1; fill:none" points="2832.76,1590.66 2832.76,109.1 "/>
<polyline clip-path="url(#clip250)" style="stroke:#000000; stroke-linecap:round; stroke-linejoin:round; stroke-width:4; stroke-opacity:1; fill:none" points="251.34,1408.96 270.238,1408.96 "/>
<polyline clip-path="url(#clip250)" style="stroke:#000000; stroke-linecap:round; stroke-linejoin:round; stroke-width:4; stroke-opacity:1; fill:none" points="251.34,1129.42 270.238,1129.42 "/>
<polyline clip-path="url(#clip250)" style="stroke:#000000; stroke-linecap:round; stroke-linejoin:round; stroke-width:4; stroke-opacity:1; fill:none" points="251.34,849.878 270.238,849.878 "/>
<polyline clip-path="url(#clip250)" style="stroke:#000000; stroke-linecap:round; stroke-linejoin:round; stroke-width:4; stroke-opacity:1; fill:none" points="251.34,570.339 270.238,570.339 "/>
<polyline clip-path="url(#clip250)" style="stroke:#000000; stroke-linecap:round; stroke-linejoin:round; stroke-width:4; stroke-opacity:1; fill:none" points="251.34,290.8 270.238,290.8 "/>
<polyline clip-path="url(#clip250)" style="stroke:#000000; stroke-linecap:round; stroke-linejoin:round; stroke-width:4; stroke-opacity:1; fill:none" points="2832.76,1408.96 2813.86,1408.96 "/>
<polyline clip-path="url(#clip250)" style="stroke:#000000; stroke-linecap:round; stroke-linejoin:round; stroke-width:4; stroke-opacity:1; fill:none" points="2832.76,1129.42 2813.86,1129.42 "/>
<polyline clip-path="url(#clip250)" style="stroke:#000000; stroke-linecap:round; stroke-linejoin:round; stroke-width:4; stroke-opacity:1; fill:none" points="2832.76,849.878 2813.86,849.878 "/>
<polyline clip-path="url(#clip250)" style="stroke:#000000; stroke-linecap:round; stroke-linejoin:round; stroke-width:4; stroke-opacity:1; fill:none" points="2832.76,570.339 2813.86,570.339 "/>
<polyline clip-path="url(#clip250)" style="stroke:#000000; stroke-linecap:round; stroke-linejoin:round; stroke-width:4; stroke-opacity:1; fill:none" points="2832.76,290.8 2813.86,290.8 "/>
<g clip-path="url(#clip250)">
<text style="fill:#000000; fill-opacity:1; font-family:Arial,Helvetica Neue,Helvetica,sans-serif; font-size:53px; text-anchor:middle;" transform="rotate(0, 155.452, 1428.46)" x="155.452" y="1428.46">0.96</text>
</g>
<g clip-path="url(#clip250)">
<text style="fill:#000000; fill-opacity:1; font-family:Arial,Helvetica Neue,Helvetica,sans-serif; font-size:53px; text-anchor:middle;" transform="rotate(0, 155.452, 1148.92)" x="155.452" y="1148.92">0.98</text>
</g>
<g clip-path="url(#clip250)">
<text style="fill:#000000; fill-opacity:1; font-family:Arial,Helvetica Neue,Helvetica,sans-serif; font-size:53px; text-anchor:middle;" transform="rotate(0, 155.452, 869.378)" x="155.452" y="869.378">1.00</text>
</g>
<g clip-path="url(#clip250)">
<text style="fill:#000000; fill-opacity:1; font-family:Arial,Helvetica Neue,Helvetica,sans-serif; font-size:53px; text-anchor:middle;" transform="rotate(0, 155.452, 589.839)" x="155.452" y="589.839">1.02</text>
</g>
<g clip-path="url(#clip250)">
<text style="fill:#000000; fill-opacity:1; font-family:Arial,Helvetica Neue,Helvetica,sans-serif; font-size:53px; text-anchor:middle;" transform="rotate(0, 155.452, 310.3)" x="155.452" y="310.3">1.04</text>
</g>
<g clip-path="url(#clip250)">
<text style="fill:#000000; fill-opacity:1; font-family:Arial,Helvetica Neue,Helvetica,sans-serif; font-size:59px; text-anchor:middle;" transform="rotate(-90, 48.2889, 849.878)" x="48.2889" y="849.878">Bus Voltage V [pu]</text>
</g>
<g clip-path="url(#clip250)">
<text style="fill:#000000; fill-opacity:1; font-family:Arial,Helvetica Neue,Helvetica,sans-serif; font-size:71px; text-anchor:middle;" transform="rotate(0, 1542.05, 62.4)" x="1542.05" y="62.4">Voltage Profile vs Load</text>
</g>
<polyline clip-path="url(#clip252)" style="stroke:#1e77b5; stroke-linecap:round; stroke-linejoin:round; stroke-width:8.8; stroke-opacity:1; fill:none" points="324.399,849.831 348.752,849.833 373.105,849.835 397.458,849.837 421.811,849.839 446.164,849.841 470.517,849.842 494.87,849.843 519.223,849.845 543.576,849.846 567.929,849.847 592.282,849.848 616.635,849.849 640.988,849.85 665.341,849.85 689.694,849.851 714.047,849.852 738.4,849.853 762.753,849.853 787.106,849.854 811.459,849.854 835.812,849.855 860.165,849.856 884.518,849.856 908.871,849.857 933.224,849.857 957.577,849.858 981.93,849.858 1006.28,849.858 1030.64,849.859 1054.99,849.859 1079.34,849.86 1103.69,849.86 1128.05,849.86 1152.4,849.861 1176.75,849.861 1201.11,849.861 1225.46,849.861 1249.81,849.862 1274.17,849.862 1298.52,849.862 1322.87,849.863 1347.22,849.863 1371.58,849.863 1395.93,849.863 1420.28,849.863 1444.64,849.864 1468.99,849.864 1493.34,849.864 1517.7,849.864 1542.05,849.864 1566.4,849.865 1590.75,849.865 1615.11,849.865 1639.46,849.865 1663.81,849.865 1688.17,849.866 1712.52,849.866 1736.87,849.866 1761.22,849.866 1785.58,849.866 1809.93,849.866 1834.28,849.866 1858.64,849.867 1882.99,849.867 1907.34,849.867 1931.7,849.867 1956.05,849.867 1980.4,849.867 2004.75,849.867 2029.11,849.867 2053.46,849.868 2077.81,849.868 2102.17,849.868 2126.52,849.868 2150.87,849.868 2175.23,849.868 2199.58,849.868 2223.93,849.868 2248.28,849.868 2272.64,849.868 2296.99,849.869 2321.34,849.869 2345.7,849.869 2370.05,849.869 2394.4,849.869 2418.76,849.869 2443.11,849.869 2467.46,849.869 2491.81,849.869 2516.17,849.869 2540.52,849.869 2564.87,849.869 2589.23,849.87 2613.58,849.87 2637.93,849.87 2662.29,849.87 2686.64,849.87 2710.99,849.87 2735.34,849.87 2759.7,849.87 "/>
<polyline clip-path="url(#clip252)" style="stroke:#ff0000; stroke-linecap:round; stroke-linejoin:round; stroke-width:8; stroke-opacity:1; fill:none" stroke-dasharray="32, 20" points="-2330.08,1548.72 5414.17,1548.72 "/>
<polyline clip-path="url(#clip252)" style="stroke:#006400; stroke-linecap:round; stroke-linejoin:round; stroke-width:8; stroke-opacity:1; fill:none" stroke-dasharray="32, 20" points="-2330.08,151.031 5414.17,151.031 "/>
<polyline clip-path="url(#clip252)" style="stroke:#808080; stroke-linecap:round; stroke-linejoin:round; stroke-width:4; stroke-opacity:1; fill:none" stroke-dasharray="2, 4" points="-2330.08,849.878 5414.17,849.878 "/>
<path clip-path="url(#clip250)" d="M2077.67 441.421 L2746.71 441.421 L2746.71 158.485 L2077.67 158.485  Z" fill="#ffffff" fill-rule="evenodd" fill-opacity="1"/>
<polyline clip-path="url(#clip250)" style="stroke:#000000; stroke-linecap:round; stroke-linejoin:round; stroke-width:4; stroke-opacity:1; fill:none" points="2077.67,441.421 2746.71,441.421 2746.71,158.485 2077.67,158.485 2077.67,441.421 "/>
<polyline clip-path="url(#clip250)" style="stroke:#1e77b5; stroke-linecap:round; stroke-linejoin:round; stroke-width:9.9; stroke-opacity:1; fill:none" points="2106.36,215.073 2278.45,215.073 "/>
<g clip-path="url(#clip250)">
<text style="fill:#000000; fill-opacity:1; font-family:Arial,Helvetica Neue,Helvetica,sans-serif; font-size:53px; text-anchor:start;" transform="rotate(0, 2307.13, 234.573)" x="2307.13" y="234.573">V(P_d)</text>
</g>
<polyline clip-path="url(#clip250)" style="stroke:#ff0000; stroke-linecap:round; stroke-linejoin:round; stroke-width:9; stroke-opacity:1; fill:none" stroke-dasharray="36, 23" points="2106.36,271.66 2278.45,271.66 "/>
<g clip-path="url(#clip250)">
<text style="fill:#000000; fill-opacity:1; font-family:Arial,Helvetica Neue,Helvetica,sans-serif; font-size:53px; text-anchor:start;" transform="rotate(0, 2307.13, 291.16)" x="2307.13" y="291.16">V_min = 0.95 pu</text>
</g>
<polyline clip-path="url(#clip250)" style="stroke:#006400; stroke-linecap:round; stroke-linejoin:round; stroke-width:9; stroke-opacity:1; fill:none" stroke-dasharray="36, 23" points="2106.36,328.247 2278.45,328.247 "/>
<g clip-path="url(#clip250)">
<text style="fill:#000000; fill-opacity:1; font-family:Arial,Helvetica Neue,Helvetica,sans-serif; font-size:53px; text-anchor:start;" transform="rotate(0, 2307.13, 347.747)" x="2307.13" y="347.747">V_max = 1.05 pu</text>
</g>
<polyline clip-path="url(#clip250)" style="stroke:#808080; stroke-linecap:round; stroke-linejoin:round; stroke-width:4.5; stroke-opacity:1; fill:none" stroke-dasharray="2, 5" points="2106.36,384.834 2278.45,384.834 "/>
<g clip-path="url(#clip250)">
<text style="fill:#000000; fill-opacity:1; font-family:Arial,Helvetica Neue,Helvetica,sans-serif; font-size:53px; text-anchor:start;" transform="rotate(0, 2307.13, 404.334)" x="2307.13" y="404.334">V_ref = 1.0 pu</text>
</g>
</svg>
